<?xml version="1.0" encoding="UTF-8" standalone="no"?>
<!-- Created with Inkscape (http://www.inkscape.org/) -->

<svg
   xmlns:dc="http://purl.org/dc/elements/1.1/"
   xmlns:cc="http://creativecommons.org/ns#"
   xmlns:rdf="http://www.w3.org/1999/02/22-rdf-syntax-ns#"
   xmlns:svg="http://www.w3.org/2000/svg"
   xmlns="http://www.w3.org/2000/svg"
   xmlns:sodipodi="http://sodipodi.sourceforge.net/DTD/sodipodi-0.dtd"
   xmlns:inkscape="http://www.inkscape.org/namespaces/inkscape"
   width="19.249161mm"
   height="11.375705mm"
   viewBox="0 0 19.249161 11.375705"
   version="1.1"
   id="svg11949"
   inkscape:version="0.92.5 (2060ec1f9f, 2020-04-08)"
   sodipodi:docname="Zeichnung.svg">
  <defs
     id="defs11943" />
  <sodipodi:namedview
     id="base"
     pagecolor="#ffffff"
     bordercolor="#666666"
     borderopacity="1.0"
     inkscape:pageopacity="0.0"
     inkscape:pageshadow="2"
     inkscape:zoom="0.35"
     inkscape:cx="-492.19505"
     inkscape:cy="21.497341"
     inkscape:document-units="mm"
     inkscape:current-layer="layer1"
     showgrid="false"
     fit-margin-top="0"
     fit-margin-left="0"
     fit-margin-right="0"
     fit-margin-bottom="0"
     inkscape:window-width="1920"
     inkscape:window-height="1055"
     inkscape:window-x="0"
     inkscape:window-y="39"
     inkscape:window-maximized="1" />
  <metadata
     id="metadata11946">
    <rdf:RDF>
      <cc:Work
         rdf:about="">
        <dc:format>image/svg+xml</dc:format>
        <dc:type
           rdf:resource="http://purl.org/dc/dcmitype/StillImage" />
        <dc:title></dc:title>
      </cc:Work>
    </rdf:RDF>
  </metadata>
  <g
     inkscape:label="Ebene 1"
     inkscape:groupmode="layer"
     id="layer1"
     transform="translate(-96.20875,-143.14547)">
    <path
       id="path12489"
       d="m 115.4489,151.85697 c -0.14762,-1.95898 -2.50003,-3.1355 -3.86476,-1.96529 0.10598,-0.42813 0.0263,-0.88528 -0.35516,-1.20028 -0.42646,-0.35201 -0.99673,-0.32131 -1.40447,-0.0242 0.6382,-3.05266 -1.75291,-5.98797 -5.00595,-5.45974 -1.43811,0.23341 -2.86592,1.04236 -3.59328,2.33705 -0.57764,1.02828 -0.62832,2.29627 -0.0671,3.30604 -1.256415,-1.18304 -3.427366,-0.56544 -4.335146,0.88297 -1.03353,1.64882 -0.90799,4.61209 1.50435,4.77674 0.771101,0.0526 1.55251,-0.10072 2.323386,-0.12575 0.94606,-0.0307 1.89443,-0.0143 2.84069,-0.0151 1.79307,-0.002 3.58634,-0.004 5.37941,-0.006 1.9533,-0.002 6.82466,0.7629 6.57801,-2.50655 z m -0.48387,1.2804 c -0.46451,0.70654 -1.34958,0.9326 -2.13876,0.9982 -1.41582,0.11734 -2.8716,0.0253 -4.29183,0.0267 -1.45683,0.001 -2.91387,0.003 -4.37069,0.004 -1.44274,0.001 -2.90062,-0.0562 -4.339776,0.0624 -0.610019,0.0503 -1.257269,0.17137 -1.86393,0.0358 -0.971289,-0.21722 -1.446939,-1.00115 -1.544299,-1.93626 -0.13459,-1.29281 0.42098,-2.76836 1.539039,-3.48941 1.15613,-0.74566 2.715146,-0.47102 3.523466,0.63926 0.0522,0.0717 0.16844,0.009 0.12154,-0.0711 -0.004,-0.007 -0.008,-0.0125 -0.012,-0.0187 0.0332,-0.0135 0.0581,-0.0522 0.033,-0.0868 -1.892095,-2.61064 0.54632,-5.45637 3.23917,-5.89039 3.22887,-0.52045 5.54911,2.50928 4.68758,5.5449 -0.033,0.11628 0.11966,0.16507 0.18379,0.0774 0.4601,-0.6279 1.4091,-0.47103 1.65828,0.26621 0.15266,0.4519 -0.10052,0.95762 -0.41636,1.25748 -0.0532,0.0505 -0.0299,0.11671 0.0168,0.14951 -0.0197,0.1043 0.12974,0.18316 0.18084,0.0751 0.65544,-1.38659 2.47795,-1.52643 3.45996,-0.405 0.61949,0.70697 0.87603,1.93606 0.33413,2.76015 z"
       style="display:inline;fill:#000000;fill-opacity:1;stroke:none;stroke-width:1;stroke-opacity:1"
       inkscape:connector-curvature="0" />
    <path
       inkscape:connector-curvature="0"
       style="display:inline;fill:#000000;fill-opacity:1;stroke:none;stroke-width:1;stroke-opacity:1"
       d="m 115.4489,151.85697 c -0.14762,-1.95898 -2.50003,-3.1355 -3.86476,-1.96529 0.10598,-0.42813 0.0263,-0.88528 -0.35516,-1.20028 -0.42646,-0.35201 -0.99673,-0.32131 -1.40447,-0.0242 0.6382,-3.05266 -1.75291,-5.98797 -5.00595,-5.45974 -1.43811,0.23341 -2.86592,1.04236 -3.59328,2.33705 -0.57764,1.02828 -0.62832,2.29627 -0.0671,3.30604 -1.256415,-1.18304 -3.427366,-0.56544 -4.335146,0.88297 -1.03353,1.64882 -0.90799,4.61209 1.50435,4.77674 0.771101,0.0526 1.55251,-0.10072 2.323386,-0.12575 0.94606,-0.0307 1.89443,-0.0143 2.84069,-0.0151 1.79307,-0.002 3.58634,-0.004 5.37941,-0.006 1.9533,-0.002 6.82466,0.7629 6.57801,-2.50655 z m -0.48387,1.2804 c -0.46451,0.70654 -1.34958,0.9326 -2.13876,0.9982 -1.41582,0.11734 -2.8716,0.0253 -4.29183,0.0267 -1.45683,0.001 -2.91387,0.003 -4.37069,0.004 -1.44274,0.001 -2.90062,-0.0562 -4.339776,0.0624 -0.610019,0.0503 -1.257269,0.17137 -1.86393,0.0358 -0.971289,-0.21722 -1.446939,-1.00115 -1.544299,-1.93626 -0.13459,-1.29281 0.42098,-2.76836 1.539039,-3.48941 1.15613,-0.74566 2.715146,-0.47102 3.523466,0.63926 0.0522,0.0717 0.16844,0.009 0.12154,-0.0711 -0.004,-0.007 -0.008,-0.0125 -0.012,-0.0187 0.0332,-0.0135 0.0581,-0.0522 0.033,-0.0868 -1.892095,-2.61064 0.54632,-5.45637 3.23917,-5.89039 3.22887,-0.52045 5.54911,2.50928 4.68758,5.5449 -0.033,0.11628 0.11966,0.16507 0.18379,0.0774 0.4601,-0.6279 1.4091,-0.47103 1.65828,0.26621 0.15266,0.4519 -0.10052,0.95762 -0.41636,1.25748 -0.0532,0.0505 -0.0299,0.11671 0.0168,0.14951 -0.0197,0.1043 0.12974,0.18316 0.18084,0.0751 0.65544,-1.38659 2.47795,-1.52643 3.45996,-0.405 0.61949,0.70697 0.87603,1.93606 0.33413,2.76015 z"
       id="path11957" />
  </g>
</svg>
