<?xml version="1.0" encoding="iso-8859-1"?>
<!-- Generator: Adobe Illustrator 18.0.0, SVG Export Plug-In . SVG Version: 6.00 Build 0)  -->
<!DOCTYPE svg PUBLIC "-//W3C//DTD SVG 1.1//EN" "http://www.w3.org/Graphics/SVG/1.1/DTD/svg11.dtd">
<svg version="1.1" id="Capa_1" xmlns="http://www.w3.org/2000/svg" xmlns:xlink="http://www.w3.org/1999/xlink" x="0px" y="0px"
	 viewBox="0 0 231.252 231.252" style="enable-background:new 0 0 231.252 231.252;" xml:space="preserve">
<g>
	<path d="M230.905,183.115c-0.33-0.958-1.311-1.021-1.883-0.492c-11.012-16.432-22.346-32.643-33.258-49.166
		c-0.145-0.219-0.334-0.334-0.529-0.371c1.901-32.056,1.296-64.489-0.489-96.538c-0.064-1.153-1.45-1.381-2.029-0.727
		c-0.194-0.342-0.523-0.61-1.023-0.638c-49.574-2.775-99.815-3.4-149.369,0.155c-1.192,0.086-1.22,1.915,0,1.878
		c49.932-1.5,99.445-2.013,149.369,0.515c0.337,0.017,0.586-0.094,0.784-0.254c1.54,31.757,0.326,63.474,1.191,95.225
		c-49.541-1.369-101.559-3.549-150.888,2.491c0.162-0.609-0.681-1.182-1.185-0.664c-0.091,0.093-0.173,0.195-0.264,0.288
		c0.038-0.089,0.117-0.14,0.128-0.251c0.08-0.851,0.128-1.708,0.203-2.56c0.011-0.001,0.018,0.008,0.029,0.006
		c5.248-1.024,10.49-1.237,15.813-0.817c0.557,0.044,0.696-0.909,0.133-0.986c-5.369-0.736-10.656-0.39-15.904,0.904
		c0.193-2.258,0.33-4.525,0.487-6.789c1.406-0.027,2.798-0.172,4.164-0.623c0.485-0.16,0.286-0.913-0.213-0.771
		c-1.3,0.37-2.59,0.555-3.897,0.639c0.156-2.302,0.266-4.61,0.388-6.916c1.393,0.136,2.768,0.063,4.107-0.317
		c0,3.647-0.039,7.295-0.022,10.943c0.004,0.927,1.033,1.16,1.6,0.732c0.118,0.2,0.3,0.359,0.621,0.358
		c46.049-0.104,92.026-3.73,138.118-3.419c0.993,0.007,0.995-1.554,0-1.543c-45.881,0.501-92.39-0.829-138.118,3.382
		c-0.107,0.01-0.158,0.084-0.243,0.123c0.533-27.512,1.553-55.439,0.017-82.916c-0.016-0.281-0.136-0.489-0.302-0.634
		c0.128,0.116,0.275,0.221,0.494,0.232c45.656,2.319,91.776,1.145,137.496,1.279c0.117,0,0.168-0.082,0.262-0.113
		c2.142,26.248-2.417,52.518,0.914,78.673c0.167,1.312,2.253,1.327,2.082,0c-3.38-26.387,2.421-52.94-1.63-79.235
		c-0.061-0.4-0.439-0.542-0.786-0.486c-0.082-0.39-0.33-0.741-0.843-0.735c-45.843,0.56-91.694-1.389-137.496-1.018
		c-0.793,0.007-0.985,0.891-0.592,1.357c-0.532-0.355-1.406-0.153-1.404,0.682c0.02,5.792-0.011,11.584-0.032,17.376
		c-1.088-0.069-2.185,0.031-3.273,0.083c-0.49,0.024-0.491,0.739,0,0.762c1.089,0.053,2.183,0.153,3.271,0.084
		c-0.008,2.129-0.003,4.258-0.012,6.387c-1.25-0.142-2.535-0.101-3.816-0.037c-0.085-5.192-0.197-10.38-0.343-15.558
		c0.929-0.09,1.859-0.075,2.88-0.015c0.526,0.031,0.656-0.839,0.126-0.931c-1.019-0.178-2.038-0.138-3.039,0.036
		c-0.06-2.054-0.148-4.098-0.218-6.148c1.309-0.087,2.619-0.173,3.913-0.373c0.555-0.086,0.43-1.031-0.133-0.986
		c-1.276,0.102-2.543,0.316-3.809,0.531c-0.07-2-0.135-4.001-0.213-5.998c6.193,0.124,12.386,0.271,18.581,0.177
		c0.885-0.013,0.887-1.363,0-1.376c-6.207-0.094-12.412,0.054-18.617,0.178c-0.002-0.052-0.003-0.104-0.005-0.155
		c-0.062-1.429-2.283-1.44-2.231,0c0.004,0.123,0.003,0.246,0.007,0.369c-0.135,0.179-0.136,0.45,0.012,0.619
		c0.148,4.621,0.198,9.233,0.27,13.848c-0.01,0.004-0.021,0.007-0.031,0.01c-0.368,0.145-0.275,0.648,0.044,0.688
		c0.398,27.023-0.412,53.943-0.579,81c-0.005,0.756,0.69,0.949,1.213,0.716c-0.039,0.04-0.075,0.084-0.114,0.124
		c-0.174,0.022-0.352,0.034-0.526,0.056c-0.468,0.06-0.571,0.595-0.285,0.829c-14.314,14.995-26.917,31.863-39.665,48.165
		c-0.539,0.69-0.325,1.524,0.16,2.013c0.005,0.293,0.143,0.555,0.496,0.663c0.033,1.459,0.093,2.917,0.15,4.375
		c-0.059,0.104-0.056,0.144,0.006,0.246c0.063,1.958-0.054,4.036,0.61,5.882c0.298,0.83,1.481,1.012,1.916,0.257
		c74.789,1.608,150.357-2.489,225.059-5.962c0.414,0.314,1.076,0.296,1.27-0.361C230.738,189.002,231.813,185.756,230.905,183.115z
		 M46.854,89.2c-0.009,0.003-0.015-0.006-0.024-0.002c-0.859,0.324-1.703,0.617-2.592,0.851c-0.162,0.043-0.094,0.291,0.069,0.251
		c0.847-0.208,1.686-0.344,2.546-0.466c-0.006,1.526-0.003,3.052-0.008,4.578c-1.226-0.305-2.423-0.183-3.584,0.206
		c0.048-3.434,0.044-6.869,0.043-10.305c0.772,0.033,1.544,0.061,2.313,0.007c0.86-0.061,0.862-1.278,0-1.339
		c-0.767-0.054-1.537-0.027-2.307,0.006c-0.003-1.847-0.064-3.69-0.079-5.537c1.265,0.098,2.514-0.062,3.647-0.679
		C46.861,80.913,46.871,85.056,46.854,89.2z M46.891,69.525c-0.009,2.205-0.004,4.41-0.012,6.615
		c-1.277,0.357-2.397,0.572-3.659,0.528c-0.022-2.371-0.09-4.736-0.127-7.106C44.369,69.627,45.647,69.666,46.891,69.525z
		 M43.235,95.738c1.183-0.296,2.348-0.367,3.605-0.339c-0.008,2.08-0.017,4.16-0.023,6.241c-1.113,0.183-2.219,0.401-3.325,0.628
		c-0.587,0.12-0.321,0.954,0.242,0.878c1.027-0.138,2.056-0.286,3.079-0.456c-0.005,1.708-0.015,3.415-0.019,5.123
		c-1.302,0.205-2.579,0.564-3.851,0.929C43.105,104.413,43.168,100.075,43.235,95.738z M42.916,109.6
		c1.304-0.232,2.609-0.477,3.876-0.849c-0.004,2.132-0.021,4.265-0.021,6.397c-1.348,0.266-2.675,0.397-4.043,0.323
		C42.826,113.518,42.841,111.556,42.916,109.6z M3.078,185.38c0.846-1.082,1.722-2.144,2.576-3.221
		c5.835-0.131,11.67-0.302,17.493-0.697c0.626-0.042,0.64-1.001,0-0.985c-5.628,0.144-11.248,0.499-16.863,0.894
		c1.127-1.417,2.277-2.819,3.413-4.23c5.14-0.152,10.296-0.22,15.422-0.601c0.554-0.041,0.569-0.884,0-0.874
		c-4.957,0.089-9.915,0.469-14.866,0.785c1.551-1.922,3.115-3.837,4.675-5.753c2.959,0.046,5.914,0.111,8.873,0.045
		c0.634-0.014,0.635-0.971,0-0.985c-2.715-0.061-5.427-0.003-8.142,0.041c1.39-1.706,2.779-3.413,4.169-5.12
		c0.003,0,0.004,0.003,0.007,0.003c2.628,0.064,5.31,0.285,7.933,0.065c0.573-0.048,0.574-0.844,0-0.892
		c-2.415-0.202-4.877-0.035-7.304,0.043c1.499-1.842,2.971-3.704,4.463-5.552c2.704-0.264,5.385-0.276,8.123-0.121
		c0.624,0.035,0.586-0.871,0-0.948c-2.439-0.321-4.899-0.232-7.332,0.086c1.142-1.417,2.267-2.847,3.397-4.272
		c3.067-0.038,6.12-0.072,9.182-0.266c-4.019,5.34-7.692,11.08-10.413,16.716c-0.579,1.2,0.844,2.026,1.7,1.195
		c0.14,0.317,0.377,0.588,0.825,0.612c58.556,3.139,118.012,0.694,176.428-3.902c1.938-0.152,1.967-3.16,0.043-3.063
		c-5.312-7.957-8.833-16.784-13.713-24.974c-0.271-0.455-0.934-0.345-1.143,0.037c-0.053-0.489-0.36-0.943-0.997-0.923
		c-48.199,1.526-96.575,2.06-144.721,4.656c-0.577,0.031-0.846,0.495-0.829,0.94c-2.332,2.508-4.593,5.3-6.787,8.181
		c-0.043-0.144-0.142-0.27-0.344-0.277c-2.806-0.084-5.602-0.029-8.406,0.031c0.602-0.761,1.211-1.518,1.813-2.28
		c2.192-0.312,4.351-0.386,6.593-0.37c0.404,0.003,0.384-0.572,0-0.613c-2.033-0.222-4.096-0.025-6.107,0.373
		c1.47-1.867,2.875-3.779,4.323-5.661c2.136,0.031,4.276,0.098,6.412,0.045c0.514-0.013,0.515-0.787,0-0.799
		c-1.955-0.049-3.912,0.008-5.867,0.041c0.833-1.087,1.657-2.181,2.494-3.266c6.415,0.092,12.824,0.197,19.24,0.104
		c0.574-0.008,0.575-0.884,0-0.892c-6.24-0.09-12.473,0.007-18.712,0.097c0.608-0.795,1.232-1.579,1.822-2.386
		c50.384,1.542,101.245-2.106,151.735-1.399c0.409,0.006,0.68-0.174,0.864-0.421c8.6,17.137,19.706,34.468,32.305,49.022
		c-36.618,0.488-73.238,1.119-109.851,1.921c-37.128,0.813-77.008,5.383-113.882,0.168C3.105,185.617,3.093,185.498,3.078,185.38z
		 M205.251,164.486c-58.301,4.379-116.2,4.883-174.626,4.834c2.731-3.85,5.119-7.981,7.746-11.9c2.802-4.18,5.869-8.21,8.497-12.503
		c48.024-0.381,96.147-2.803,144.157-4.237c0.609-0.018,0.904-0.46,0.978-0.93c0.003,0.054-0.03,0.095-0.01,0.153
		C195.035,148.69,200.49,156.525,205.251,164.486z M4.014,196.053c0.058-1.328-0.112-2.676-0.258-4.005
		c6.016,0.263,12.037,0.547,18.054,0.727c0.752,0.022,0.726-1.085,0-1.153c-5.997-0.561-12.101-0.609-18.138-0.372
		c-0.006-0.059-0.014-0.12-0.019-0.179c-0.103-1.168-0.2-2.335-0.314-3.501c33.806,6.069,71.58,0.887,105.778,0.544
		c39.431-0.397,78.863-0.994,118.288-1.761c0.607-0.012,0.935-0.378,1.115-0.809c0.027,1.217,0.136,2.429,0.094,3.656
		C153.792,192.366,78.788,192.569,4.014,196.053z"/>
	<path d="M140.605,181.537c-1.136-2.07-2.335-3.909-3.71-5.776c0.031-0.313-0.139-0.571-0.47-0.666
		c-0.014-0.018-0.024-0.035-0.038-0.053c-0.52-0.682-1.456-0.491-1.826,0.033c-11.716,0.518-23.381,0.84-35.111,0.894
		c-0.077-0.513-0.73-0.806-1.097-0.252c-0.099,0.149-0.175,0.295-0.271,0.443c-0.194,0.135-0.319,0.318-0.335,0.547
		c-1.233,1.946-2.311,3.865-3.31,5.997c-0.381,0.813,0.074,1.72,1.011,1.763c14.771,0.675,29.471,0.132,44.188-1.24
		C140.478,183.148,141.041,182.332,140.605,181.537z M132.854,181.552c-4.367,0.751-9.168,0.549-13.591,0.663
		c-4.534,0.118-9.075,0.161-13.61,0.128c-5.908-0.042-8.945,1.111-6.716-4.725c11.965,0.745,24.119,0.422,36.031-0.991
		C137.675,180.442,138.108,180.649,132.854,181.552z"/>
</g>
<g>
</g>
<g>
</g>
<g>
</g>
<g>
</g>
<g>
</g>
<g>
</g>
<g>
</g>
<g>
</g>
<g>
</g>
<g>
</g>
<g>
</g>
<g>
</g>
<g>
</g>
<g>
</g>
<g>
</g>
</svg>
