<?xml version="1.0" encoding="UTF-8" standalone="no"?>
<!-- Created with Inkscape (http://www.inkscape.org/) -->

<svg
   xmlns:dc="http://purl.org/dc/elements/1.1/"
   xmlns:cc="http://creativecommons.org/ns#"
   xmlns:rdf="http://www.w3.org/1999/02/22-rdf-syntax-ns#"
   xmlns:svg="http://www.w3.org/2000/svg"
   xmlns="http://www.w3.org/2000/svg"
   xmlns:sodipodi="http://sodipodi.sourceforge.net/DTD/sodipodi-0.dtd"
   xmlns:inkscape="http://www.inkscape.org/namespaces/inkscape"
   width="3.5989461mm"
   height="4.1596713mm"
   viewBox="0 0 3.5989461 4.1596713"
   version="1.1"
   id="svg11692"
   inkscape:version="0.92.5 (2060ec1f9f, 2020-04-08)"
   sodipodi:docname="light-bulb.svg">
  <defs
     id="defs11686" />
  <sodipodi:namedview
     id="base"
     pagecolor="#ffffff"
     bordercolor="#666666"
     borderopacity="1.0"
     inkscape:pageopacity="0.0"
     inkscape:pageshadow="2"
     inkscape:zoom="0.35"
     inkscape:cx="6.8011673"
     inkscape:cy="7.8607953"
     inkscape:document-units="mm"
     inkscape:current-layer="layer1"
     showgrid="false"
     fit-margin-top="0"
     fit-margin-left="0"
     fit-margin-right="0"
     fit-margin-bottom="0"
     inkscape:window-width="1920"
     inkscape:window-height="1055"
     inkscape:window-x="0"
     inkscape:window-y="39"
     inkscape:window-maximized="1" />
  <metadata
     id="metadata11689">
    <rdf:RDF>
      <cc:Work
         rdf:about="">
        <dc:format>image/svg+xml</dc:format>
        <dc:type
           rdf:resource="http://purl.org/dc/dcmitype/StillImage" />
        <dc:title></dc:title>
      </cc:Work>
    </rdf:RDF>
  </metadata>
  <g
     inkscape:label="Ebene 1"
     inkscape:groupmode="layer"
     id="layer1"
     transform="translate(35.817333,-146.7535)">
    <g
       style="display:inline"
       id="g43982"
       transform="translate(-176.89266,-38.800607)">
      <path
         inkscape:connector-curvature="0"
         id="path39437"
         d="m 142.88384,188.5805 c -0.0138,-0.0315 -0.0332,-0.0614 -0.0412,-0.0943 -10e-4,-0.005 0.0139,0.004 0.0181,0 0.009,-0.008 -0.009,-0.0247 0,-0.0323 0.004,-0.004 0.0139,0.004 0.0181,0 0.004,-0.004 -0.002,-0.0113 0,-0.0162 0.004,-0.007 0.0143,-0.01 0.0181,-0.0162 0.002,-0.005 -0.004,-0.0124 0,-0.0162 0.004,-0.004 0.0139,0.004 0.0181,0 0.004,-0.004 -0.002,-0.0113 0,-0.0162 0.008,-0.0137 0.0286,-0.0187 0.0362,-0.0324 0,-0.0431 -0.006,0.006 0.0181,-0.0162 0.004,-0.004 -0.004,-0.0124 0,-0.0162 0.004,-0.004 0.0139,0.004 0.0181,0 0.009,-0.008 -0.009,-0.0247 0,-0.0323 0.004,-0.004 0.0127,0.002 0.0181,0 0.008,-0.004 0.012,-0.0108 0.0181,-0.0162 0.007,-0.006 0.0143,-0.01 0.0181,-0.0162 0.002,-0.005 -0.004,-0.0124 0,-0.0162 0.004,-0.004 0.0139,0.004 0.0181,0 0.0375,-0.0335 -0.0572,9.6e-4 0.0181,-0.0324 0.005,-0.002 0.0139,0.004 0.0181,0 0.0375,-0.0335 -0.0572,9.7e-4 0.0181,-0.0323 0.005,-0.002 0.0139,0.004 0.0181,0 0.004,-0.004 -0.004,-0.0124 0,-0.0162 0.004,-0.004 0.0139,0.004 0.0181,0 0.004,-0.004 -0.004,-0.0124 0,-0.0162 0.004,-0.004 0.0139,0.004 0.0181,0 0.004,-0.004 -0.004,-0.0124 0,-0.0162 0.0375,-0.0335 -0.001,0.0511 0.0362,-0.0162 0.002,-0.005 -0.004,-0.0124 0,-0.0162 0.0375,-0.0335 -0.001,0.0511 0.0362,-0.0162 0.002,-0.005 -0.004,-0.0124 0,-0.0162 0.004,-0.004 0.0127,0.002 0.0181,0 0.0153,-0.007 0.0209,-0.0255 0.0362,-0.0323 0.005,-0.002 0.0139,0.004 0.0181,0 0.004,-0.004 -0.004,-0.0124 0,-0.0162 0.004,-0.004 0.0127,0.002 0.0181,0 0.0753,-0.0337 -0.0194,9.7e-4 0.0181,-0.0323 0.004,-0.004 0.0139,0.004 0.0181,0 0.004,-0.004 -0.004,-0.0124 0,-0.0162 0.004,-0.004 0.0139,0.004 0.0181,0 0.004,-0.004 -0.004,-0.0124 0,-0.0162 0.0482,0 -0.007,0.006 0.0181,-0.0162 0.004,-0.004 0.0139,0.004 0.0181,0 0.004,-0.004 -0.004,-0.0124 0,-0.0162 0.0375,-0.0335 -0.001,0.0511 0.0362,-0.0162 0.002,-0.005 -0.004,-0.0124 0,-0.0162 0.022,-0.0198 0.0404,-0.008 0.0543,-0.0323 0,-0.0431 -0.007,0.006 0.0181,-0.0162 0.004,-0.004 -0.004,-0.0124 0,-0.0162 0.0375,-0.0335 -0.001,0.0511 0.0362,-0.0162 0.002,-0.005 -0.004,-0.0123 0,-0.0162 0.004,-0.004 0.0127,0.002 0.0181,0 0.008,-0.004 0.0108,-0.0128 0.0181,-0.0162 0.005,-0.002 0.0139,0.004 0.0181,0 0.004,-0.004 -0.004,-0.0123 0,-0.0162 0.004,-0.004 0.0139,0.004 0.0181,0 0.004,-0.004 -0.004,-0.0124 0,-0.0162 0.004,-0.004 0.0139,0.004 0.0181,0 0.009,-0.008 -0.009,-0.0247 0,-0.0323 0.004,-0.004 0.0139,0.004 0.0181,0 0.004,-0.004 -0.004,-0.0124 0,-0.0162 0.009,-0.008 0.0276,0.008 0.0362,0 0.004,-0.004 -0.004,-0.0124 0,-0.0162 0.004,-0.004 0.0139,0.004 0.0181,0 0.004,-0.004 -0.004,-0.0608 0,-0.0647 0.004,-0.004 0.0139,0.004 0.0181,0 0.009,-0.008 -0.005,-0.0227 0,-0.0324 0.004,-0.007 0.0143,-0.01 0.0181,-0.0162 0.008,-0.013 -0.008,-0.0356 0,-0.0485 0.004,-0.007 0.0143,-0.01 0.0181,-0.0162 0.005,-0.009 -0.005,-0.0603 0,-0.0647 0.004,-0.004 0.0138,0.004 0.0181,0 5.7e-4,-5.1e-4 0,-0.0446 0,-0.0485 0,-0.0701 0,-0.14019 0,-0.21028 0,-0.0112 0.003,-0.0751 0,-0.0809 -0.004,-0.007 -0.0143,-0.01 -0.0181,-0.0162 -0.005,-0.01 0.009,-0.0247 0,-0.0323 -0.004,-0.004 -0.0139,0.004 -0.0181,0 -0.003,-0.003 0.003,-0.0421 0,-0.0485 -0.0414,-0.074 0.008,0.0687 -0.0362,-0.0485 -0.004,-0.0103 0.005,-0.0227 0,-0.0323 -0.004,-0.007 -0.0143,-0.01 -0.0181,-0.0162 -0.005,-0.01 0.009,-0.0247 0,-0.0323 -0.004,-0.004 -0.0139,0.004 -0.0181,0 -0.009,-0.008 0.009,-0.0405 0,-0.0485 -0.004,-0.004 -0.0139,0.004 -0.0181,0 -0.009,-0.008 0.005,-0.0227 0,-0.0323 -0.008,-0.0137 -0.0286,-0.0187 -0.0362,-0.0323 -0.002,-0.005 0.002,-0.0113 0,-0.0162 -0.004,-0.007 -0.0143,-0.01 -0.0181,-0.0162 -0.002,-0.005 0.004,-0.0124 0,-0.0162 -0.004,-0.004 -0.0139,0.004 -0.0181,0 -0.009,-0.008 0.009,-0.0247 0,-0.0323 -0.004,-0.004 -0.0139,0.004 -0.0181,0 -0.004,-0.004 0.004,-0.0124 0,-0.0162 -0.004,-0.004 -0.0139,0.004 -0.0181,0 -0.004,-0.004 0.002,-0.0113 0,-0.0162 -0.004,-0.007 -0.0143,-0.01 -0.0181,-0.0162 -0.002,-0.005 0.004,-0.0124 0,-0.0162 -0.004,-0.004 -0.0139,0.004 -0.0181,0 -0.004,-0.004 0.004,-0.0124 0,-0.0162 -0.0375,-0.0335 0.001,0.0511 -0.0362,-0.0162 0,-0.0431 0.007,0.006 -0.0181,-0.0162 -0.004,-0.004 0.004,-0.0124 0,-0.0162 -0.004,-0.004 -0.0139,0.004 -0.0181,0 -0.004,-0.004 0.004,-0.0124 0,-0.0162 -0.004,-0.004 -0.0139,0.004 -0.0181,0 -0.0375,-0.0335 0.0572,9.6e-4 -0.0181,-0.0324 -0.0249,-0.0111 -0.0162,0.0196 -0.0362,-0.0162 0,-0.0431 0.007,0.006 -0.0181,-0.0162 -0.004,-0.004 0.004,-0.0124 0,-0.0162 -0.004,-0.004 -0.0139,0.004 -0.0181,0 -0.004,-0.004 0.004,-0.0124 0,-0.0162 -0.004,-0.004 -0.0127,0.002 -0.0181,0 -0.008,-0.004 -0.0108,-0.0128 -0.0181,-0.0162 -0.005,-0.002 -0.0138,0.004 -0.0181,0 -0.004,-0.004 0.004,-0.0124 0,-0.0162 -0.004,-0.004 -0.0127,0.002 -0.0181,0 -0.0153,-0.007 -0.0209,-0.0256 -0.0362,-0.0324 -0.005,-0.002 -0.0139,0.004 -0.0181,0 -0.004,-0.004 0.004,-0.0124 0,-0.0162 -0.004,-0.004 -0.0127,0.002 -0.0181,0 -0.008,-0.004 -0.0108,-0.0128 -0.0181,-0.0162 -0.005,-0.002 -0.0139,0.004 -0.0181,0 -0.004,-0.004 0.004,-0.0124 0,-0.0162 -0.009,-0.008 -0.0254,0.005 -0.0362,0 -0.008,-0.004 -0.0108,-0.0128 -0.0181,-0.0162 -0.008,-0.003 -0.0506,0.003 -0.0543,0 -0.004,-0.004 0.004,-0.0124 0,-0.0162 -0.003,-0.003 -0.0472,0.003 -0.0543,0 -0.008,-0.004 -0.0108,-0.0128 -0.0181,-0.0162 -0.004,-0.002 -0.0958,0 -0.10867,0 -0.0362,0 -0.0724,0 -0.10865,0 -0.012,0 -0.047,-0.005 -0.0362,0 0.0651,0.0297 0.13254,0.0551 0.19881,0.0826"
         style="fill:none;fill-opacity:1;fill-rule:evenodd;stroke:#f0c900;stroke-width:0.27109727px;stroke-linecap:butt;stroke-linejoin:miter;stroke-opacity:1" />
      <path
         inkscape:connector-curvature="0"
         id="path43949"
         d="m 142.73446,188.47186 c 0,-0.0167 0,-0.0334 0,-0.0501 0,-0.003 -5.3e-4,-0.006 0,-0.008 7.9e-4,-0.004 0.003,-0.008 0.004,-0.0126 2.6e-4,-0.001 -2.7e-4,-0.003 0,-0.004 0.001,-0.004 0.003,-0.008 0.004,-0.0125 0.001,-0.006 -0.001,-0.0151 0,-0.0209 5.3e-4,-0.002 0.003,-0.002 0.004,-0.004 7.9e-4,-0.001 0,-0.0245 0,-0.0292 0,-0.003 0,-0.006 0,-0.008 0,-0.001 -5.3e-4,-0.003 0,-0.004 7.9e-4,-0.002 0.004,-0.002 0.004,-0.004 7.9e-4,-0.002 0,-0.0132 0,-0.0167 0,-0.0167 0,-0.0334 0,-0.0501 0,-0.0296 -0.003,-0.002 0.004,-0.0167 0.001,-0.002 -7.9e-4,-0.0211 0,-0.0251 7.9e-4,-0.004 0.003,-0.008 0.004,-0.0125 10e-4,-0.005 -7.9e-4,-0.0164 0,-0.0209 5.3e-4,-0.003 0.003,-0.005 0.004,-0.008 0.002,-0.005 0.002,-0.0114 0.004,-0.0167 7.9e-4,-0.002 0.004,-0.002 0.004,-0.004 0.01,-0.0287 -0.016,0.0195 0.004,-0.0209 0.002,-0.004 0.006,-0.005 0.008,-0.008 0.003,-0.005 0.005,-0.0115 0.008,-0.0167 0.001,-0.002 0.003,-0.003 0.004,-0.004 0.001,-0.003 0.002,-0.006 0.004,-0.008 0.003,-0.005 0.009,-0.008 0.0126,-0.0126 0.0103,-0.002 0.002,-0.009 0.004,-0.0125 5.2e-4,-7.9e-4 0.0142,-0.0148 0.0167,-0.0167 0.004,-0.003 0.009,-0.005 0.0125,-0.008 0.003,-0.002 0.006,-0.006 0.008,-0.008 0.007,-0.007 0.0139,-0.0139 0.0209,-0.0209 0.004,-0.004 0.008,-0.008 0.0125,-0.0125 0.001,-0.001 0.003,-0.003 0.004,-0.004 0.003,-0.002 0.006,-0.002 0.008,-0.004 0.005,-0.004 0.008,-0.008 0.0125,-0.0125 0.001,-0.001 0.003,-0.003 0.004,-0.004 0.002,-0.003 0.002,-0.006 0.004,-0.008 0.0101,-0.0101 0.006,0.001 0.0125,-0.008 0.002,-0.003 0.002,-0.006 0.004,-0.008 0.002,-0.003 0.006,-0.006 0.008,-0.008 0.006,-0.006 0.0111,-0.0111 0.0167,-0.0167 0.003,-0.003 0.0141,-0.0128 0.0167,-0.0167 0.002,-0.003 0.002,-0.006 0.004,-0.008 0.002,-0.002 0.006,-0.002 0.008,-0.004 0.001,-0.001 -10e-4,-0.003 0,-0.004 0.002,-0.002 0.006,-0.002 0.008,-0.004 0.001,-0.001 -5.3e-4,-0.003 0,-0.004 0.0101,-0.0302 -0.001,0.007 0.008,-0.0125 5.3e-4,-0.001 -8e-4,-0.003 0,-0.004 0.003,-0.005 0.009,-0.008 0.0125,-0.0125 0.002,-0.003 0.002,-0.006 0.004,-0.008 0.002,-0.003 0.007,-0.005 0.008,-0.008 0.002,-0.004 0.002,-0.009 0.004,-0.0125 0.002,-0.004 0.007,-0.005 0.008,-0.008 5.3e-4,-0.001 -5.3e-4,-0.003 0,-0.004 7.9e-4,-0.002 0.003,-0.003 0.004,-0.004 0.002,-0.003 0.002,-0.006 0.004,-0.008 0.001,-10e-4 0.003,0 0.004,0 0.001,-10e-4 0.003,-0.003 0.004,-0.004 0.002,-0.003 0.002,-0.006 0.004,-0.008 10e-4,-0.002 0.003,-0.003 0.004,-0.004 0.004,-0.004 0.008,-0.008 0.0125,-0.0125 0.004,-0.004 0.008,-0.008 0.0125,-0.0125 0.003,-0.003 0.005,-0.006 0.008,-0.008 0.004,-0.003 0.008,-0.006 0.0125,-0.008 0.001,-5.3e-4 0.003,0.001 0.004,0 0.0214,-0.0214 -0.0175,0.006 0.0125,-0.0167 0.002,-0.002 0.006,-0.003 0.008,-0.004 0.006,-0.003 0.0111,-0.006 0.0167,-0.008 0.003,-10e-4 0.006,-0.002 0.008,-0.004 0.002,-0.001 0.002,-0.003 0.004,-0.004 0.005,-0.002 0.0113,-0.002 0.0167,-0.004 0.025,-0.008 -0.0105,10e-4 0.0167,-0.0125 0.005,-0.003 0.0114,-0.002 0.0167,-0.004 0.002,-8e-4 0.003,-0.003 0.004,-0.004 0.003,-0.002 0.006,-0.003 0.008,-0.004 0.003,-0.003 0.005,-0.006 0.008,-0.008 0.001,-8e-4 0.003,5.2e-4 0.004,0 0.002,-8e-4 0.003,-0.003 0.004,-0.004 0.003,-0.002 0.006,-0.002 0.008,-0.004 0.004,-0.003 0.009,-0.0107 0.0125,-0.0125 10e-4,-5.3e-4 0.003,5.3e-4 0.004,0 0.002,-7.9e-4 0.002,-0.003 0.004,-0.004 0.001,-5.3e-4 0.003,0.001 0.004,0 10e-4,-0.001 -0.001,-0.003 0,-0.004 0.002,-0.002 0.005,-0.003 0.008,-0.004 0.001,-5.3e-4 0.003,0.001 0.004,0 10e-4,-10e-4 -0.001,-0.003 0,-0.004 0.002,-0.002 0.006,-0.002 0.008,-0.004 0.002,-0.001 0.002,-0.003 0.004,-0.004 0.001,-5.3e-4 0.003,7.9e-4 0.004,0 0.003,-0.003 0.006,-0.006 0.008,-0.008 0.001,0 0.003,5.3e-4 0.004,0 0.004,-0.002 0.005,-0.007 0.008,-0.008 0.001,-5.3e-4 0.003,5.2e-4 0.004,0 0.002,-8e-4 0.003,-0.003 0.004,-0.004 0.003,0 0.006,8e-4 0.008,0 0.0202,-0.005 -2e-4,-0.002 0.0126,-0.008 0.0103,-0.005 -0.004,0.0121 0.0125,-0.004 0.001,-0.001 -10e-4,-0.004 0,-0.004 0.002,-10e-4 0.006,8e-4 0.008,0 0.002,-5.3e-4 0.002,-0.003 0.004,-0.004 0.001,-5.3e-4 0.003,0 0.004,0 0.003,-0.001 0.006,-0.002 0.008,-0.004 0.003,-0.002 0.005,-0.006 0.008,-0.008 0.003,-0.002 0.005,-0.003 0.008,-0.004 0.001,-5.3e-4 0.003,0 0.004,0 0.005,0 0.008,5.3e-4 0.0125,-0.004 0.001,-0.001 -10e-4,-0.003 0,-0.004 0.001,-0.001 0.003,5.3e-4 0.004,0 0.005,-0.002 0.008,-0.01 0.0125,-0.0125 0.001,-5.3e-4 0.003,0.001 0.004,0 10e-4,-0.001 0,-0.003 0,-0.004 10e-4,-0.003 0.002,-0.006 0.004,-0.008 0.001,-0.001 0.003,0.001 0.004,0 0.002,-0.002 0.002,-0.006 0.004,-0.008 0.002,-0.003 0.007,-0.005 0.008,-0.008 0.002,-0.004 0.002,-0.009 0.004,-0.0125 8e-4,-0.002 0.003,-0.002 0.004,-0.004 5.3e-4,-0.001 -5.3e-4,-0.003 0,-0.004 0.001,-0.003 0.003,-0.005 0.004,-0.008 8e-4,-0.003 -7.9e-4,-0.006 0,-0.008 0.0101,-0.0303 -0.001,0.007 0.008,-0.0125 0.002,-0.004 -0.002,-0.004 0,-0.008 8e-4,-0.002 0.003,-0.002 0.004,-0.004 0.001,-0.003 -0.001,-0.0212 0,-0.0251 5.3e-4,-0.002 0.003,-0.002 0.004,-0.004 5.3e-4,-0.001 0,-0.003 0,-0.004 0,-5.3e-4 -7.9e-4,-0.0175 0,-0.0209 0.001,-0.004 0.003,-0.008 0.004,-0.0125 2.7e-4,-10e-4 -5.2e-4,-0.003 0,-0.004 0.001,-0.003 0.004,-0.005 0.004,-0.008 8e-4,-0.004 -0.001,-0.008 0,-0.0125 5.3e-4,-0.002 0.004,-0.002 0.004,-0.004 5.2e-4,-0.002 -10e-4,-0.0177 0,-0.0209 0.001,-0.003 0.003,-0.005 0.004,-0.008 5.2e-4,-10e-4 0,-0.003 0,-0.004 0,-0.003 -8e-4,-0.0184 0,-0.0209 0.001,-0.003 0.003,-0.005 0.004,-0.008 7.9e-4,-0.003 0,-0.006 0,-0.008 0,-0.008 0,-0.0167 0,-0.025 0,-0.003 -8e-4,-0.006 0,-0.008 0.001,-0.004 0.003,-0.008 0.004,-0.0125 2.6e-4,-10e-4 0,-0.003 0,-0.004 0,-0.008 0,-0.0167 0,-0.0251 0,-0.003 -5.3e-4,-0.006 0,-0.008 7.9e-4,-0.004 0.003,-0.008 0.004,-0.0125 7.9e-4,-0.004 0,-0.022 0,-0.025 0,-0.003 -8e-4,-0.006 0,-0.008 0.001,-0.004 0.003,-0.008 0.004,-0.0125 7.9e-4,-0.003 0,-0.006 0,-0.008 0,-0.006 0,-0.0111 0,-0.0167 0,-0.0139 0,-0.0278 0,-0.0418 0,-0.01 0,-0.0195 0,-0.0292 0,-0.006 0.001,-0.0113 0,-0.0167 -5.3e-4,-0.002 -0.004,-0.002 -0.004,-0.004 -8e-4,-0.003 5.3e-4,-0.006 0,-0.008 -8e-4,-0.004 -0.003,-0.008 -0.004,-0.0125 -8e-4,-0.004 0.001,-0.009 0,-0.0125 -10e-4,-0.003 -0.003,-0.005 -0.004,-0.008 -8e-4,-0.003 7.9e-4,-0.006 0,-0.008 -5.3e-4,-0.002 -0.004,-0.002 -0.004,-0.004 -0.001,-0.004 0.001,-0.008 0,-0.0125 -5.3e-4,-0.002 -0.003,-0.002 -0.004,-0.004 -5.3e-4,-0.001 2.6e-4,-0.003 0,-0.004 -10e-4,-0.004 -0.002,-0.009 -0.004,-0.0125 -7.9e-4,-0.002 -0.003,-0.003 -0.004,-0.004 -0.001,-0.004 -0.002,-0.009 -0.004,-0.0125 -7.9e-4,-0.002 -0.003,-0.002 -0.004,-0.004 -5.3e-4,-0.001 5.3e-4,-0.003 0,-0.004 -0.001,-0.003 -0.003,-0.006 -0.004,-0.008 -0.001,-0.003 -0.002,-0.006 -0.004,-0.008 -10e-4,-0.002 -0.003,-0.003 -0.004,-0.004 -0.001,-0.003 -0.002,-0.006 -0.004,-0.008 -0.002,-0.003 -0.006,-0.005 -0.008,-0.008 -0.002,-0.003 -0.002,-0.006 -0.004,-0.008 -0.003,-0.005 -0.005,-0.003 -0.008,-0.008 -0.002,-0.003 -0.002,-0.006 -0.004,-0.008 -0.001,-0.001 -0.003,5.3e-4 -0.004,0 -0.002,-7.9e-4 -0.003,-0.003 -0.004,-0.004 -0.003,-0.003 -0.006,-0.006 -0.008,-0.008 -0.004,-0.004 -0.009,-0.008 -0.0125,-0.0125 -8e-4,-0.001 0.001,-0.003 0,-0.004 -0.002,-0.002 -0.006,-0.002 -0.008,-0.004 -0.006,-0.004 -0.0114,-0.0114 -0.0167,-0.0167 -0.001,-0.001 -0.003,-0.003 -0.004,-0.004 -0.003,-0.002 -0.006,-0.002 -0.008,-0.004 -0.001,-10e-4 0,-0.003 0,-0.004 -0.003,-0.003 -0.005,-0.006 -0.008,-0.008 -10e-4,-7.9e-4 -0.003,5.3e-4 -0.004,0 -0.002,-7.9e-4 -0.003,-0.003 -0.004,-0.004 -0.004,-0.003 -0.008,-0.006 -0.0125,-0.008 -0.001,-5.3e-4 -0.003,5.3e-4 -0.004,0 -0.002,-7.9e-4 -0.003,-0.003 -0.004,-0.004 -0.003,-0.002 -0.006,-0.002 -0.008,-0.004 -0.003,-0.002 -0.005,-0.006 -0.008,-0.008 -0.003,-0.002 -0.006,-0.002 -0.008,-0.004 -0.001,-0.001 0.001,-0.003 0,-0.004 -0.002,-0.002 -0.006,-0.002 -0.008,-0.004 -0.007,-0.005 -0.002,-0.004 -0.008,-0.008 -0.003,-0.002 -0.006,-0.002 -0.008,-0.004 -0.002,-0.001 -0.002,-0.003 -0.004,-0.004 -10e-4,-5.3e-4 -0.003,0.001 -0.004,0 -0.0101,-0.0101 0.001,-0.006 -0.008,-0.0125 -0.005,-0.003 -0.0115,-0.005 -0.0167,-0.008 -0.006,-0.004 -0.0106,-0.0126 -0.0167,-0.0167 -0.003,-0.002 -0.006,-0.002 -0.008,-0.004 -0.002,-0.001 -0.002,-0.003 -0.004,-0.004 -10e-4,-5.3e-4 -0.003,5.3e-4 -0.004,0 -0.004,-0.002 -0.009,-0.005 -0.0125,-0.008 -0.002,-0.001 -0.002,-0.003 -0.004,-0.004 -10e-4,-5.3e-4 -0.003,7.9e-4 -0.004,0 -0.003,-0.002 -0.005,-0.006 -0.008,-0.008 -10e-4,-8e-4 -0.003,0.001 -0.004,0 -0.001,-0.001 0.001,-0.003 0,-0.004 -0.002,-0.002 -0.006,-0.002 -0.008,-0.004 -0.003,-0.002 -0.005,-0.007 -0.008,-0.008 -0.001,-5.2e-4 -0.003,5.3e-4 -0.004,0 -0.002,-7.9e-4 -0.002,-0.004 -0.004,-0.004 -0.003,-7.9e-4 -0.006,0.001 -0.008,0 -10e-4,-5.2e-4 5.3e-4,-0.003 0,-0.004 -7.9e-4,-0.002 -0.003,-0.003 -0.004,-0.004 -0.002,-0.009 -0.009,-0.002 -0.0125,-0.004 -0.005,-0.002 -0.008,-0.01 -0.0125,-0.0125 -0.001,-5.3e-4 -0.003,5.3e-4 -0.004,0 -0.0151,-0.005 -0.003,-0.002 -0.0126,-0.008 -0.003,-0.002 -0.006,-0.002 -0.008,-0.004 -0.003,-0.002 -0.005,-0.007 -0.008,-0.008 -0.002,-0.001 -0.006,0.002 -0.008,0 -0.003,-0.002 -0.002,-0.007 -0.004,-0.008 -0.002,-0.002 -0.006,10e-4 -0.008,0 -0.001,-5.3e-4 0.001,-0.003 0,-0.004 -0.002,-0.002 -0.006,-0.002 -0.008,-0.004 -0.002,-0.001 -0.003,-0.003 -0.004,-0.004 -0.003,-0.002 -0.006,-0.003 -0.008,-0.004 -0.003,-0.001 -0.005,-0.003 -0.008,-0.004 -10e-4,-5.3e-4 -0.003,5.3e-4 -0.004,0 -0.0117,-0.004 -0.005,-0.004 -0.0167,-0.008 -0.001,-5.3e-4 -0.003,5.3e-4 -0.004,0 -0.005,-0.002 -0.008,-0.006 -0.0125,-0.008 -0.001,-5.3e-4 -0.003,5.3e-4 -0.004,0 -0.002,-7.9e-4 -0.002,-0.004 -0.004,-0.004 -0.003,-7.9e-4 -0.006,0 -0.008,0 -0.001,0 -0.003,5.3e-4 -0.004,0 -0.002,-7.9e-4 -0.002,-0.004 -0.004,-0.004 -0.003,-7.9e-4 -0.006,0 -0.008,0 -0.001,0 -0.003,5.3e-4 -0.004,0 -0.002,-7.9e-4 -0.002,-0.004 -0.004,-0.004 -0.004,-0.003 -0.009,0.001 -0.0125,0 -0.003,-0.001 -0.005,-0.003 -0.008,-0.004 -0.005,-10e-4 -0.0114,0.002 -0.0167,0 -0.002,-5.3e-4 -0.002,-0.004 -0.004,-0.004 -0.004,-0.001 -0.009,0.001 -0.0126,0 -0.003,-0.001 -0.005,-0.003 -0.008,-0.004 -0.003,-7.9e-4 -0.006,0 -0.008,0 -0.01,0 -0.0195,0 -0.0292,0 -0.0278,0 -0.0557,0 -0.0835,0 -0.0348,0 -0.0696,0 -0.1044,0 -0.0111,0 -0.0223,0 -0.0334,0 -0.001,0 -0.0145,-7.9e-4 -0.0167,0 -0.003,0.001 -0.005,0.003 -0.008,0.004 -0.003,7.9e-4 -0.006,-7.9e-4 -0.008,0 -0.003,0.001 -0.005,0.003 -0.008,0.004 -0.004,0.001 -0.009,-10e-4 -0.0125,0 -0.003,0.001 -0.005,0.003 -0.008,0.004 -0.001,5.3e-4 -0.003,-2.6e-4 -0.004,0 -0.004,0.001 -0.008,0.003 -0.0125,0.004 -0.003,7.9e-4 -0.006,-7.9e-4 -0.008,0 -0.003,0.001 -0.005,0.003 -0.008,0.004 -0.003,8e-4 -0.006,-10e-4 -0.008,0 -0.002,8e-4 -0.002,0.003 -0.004,0.004 -0.002,0.001 -0.006,-0.001 -0.008,0 -0.004,0.002 -0.005,0.007 -0.008,0.008 -0.002,0.001 -0.01,-0.001 -0.0125,0 -0.003,0.001 -0.005,0.003 -0.008,0.004 -0.001,5.3e-4 -0.003,-0.001 -0.004,0 -10e-4,10e-4 0.001,0.003 0,0.004 -8e-4,8e-4 -0.0109,-7.9e-4 -0.0125,0 -0.002,8e-4 -0.002,0.003 -0.004,0.004 -0.001,5.3e-4 -0.003,-5.3e-4 -0.004,0 -0.002,8e-4 -0.002,0.003 -0.004,0.004 -0.001,5.3e-4 -0.003,-5.2e-4 -0.004,0 -0.002,8e-4 -0.002,0.003 -0.004,0.004 -10e-4,5.3e-4 -0.003,-5.2e-4 -0.004,0 -0.0127,0.006 0.008,0.003 -0.0125,0.008 -0.003,7.9e-4 -0.006,-8e-4 -0.008,0 -0.002,5.2e-4 -0.003,0.003 -0.004,0.004 -0.003,0.002 -0.006,0.002 -0.008,0.004 -0.002,0.001 -0.003,0.003 -0.004,0.004 -0.011,0.007 -0.007,0.002 -0.0209,0.008 -0.002,7.9e-4 -0.002,0.003 -0.004,0.004 -0.001,5.3e-4 -0.003,-5.3e-4 -0.004,0 -0.004,0.002 -0.009,0.005 -0.0125,0.008 -0.002,0.001 -0.002,0.003 -0.004,0.004 -0.001,5.3e-4 -0.003,0 -0.004,0 -0.004,0.003 -0.009,0.005 -0.0125,0.008 -0.002,0.001 -0.002,0.003 -0.004,0.004 -0.0136,0.007 -0.01,10e-4 -0.0209,0.008 -0.002,0.001 -0.002,0.003 -0.004,0.004 -0.004,0.002 -0.008,0.003 -0.0125,0.004 -10e-4,2.7e-4 -0.003,-5.3e-4 -0.004,0 -0.002,8e-4 -0.002,0.003 -0.004,0.004 -0.004,0.002 -0.009,0.002 -0.0125,0.004 -0.004,0.002 -0.005,0.006 -0.008,0.008 -0.003,0.002 -0.006,0.002 -0.008,0.004 -0.002,10e-4 -0.002,0.003 -0.004,0.004 -0.001,5.3e-4 -0.003,-5.2e-4 -0.004,0 -0.003,0.001 -0.005,0.003 -0.008,0.004 -0.001,5.2e-4 -0.003,-0.001 -0.004,0 -10e-4,0.001 5.3e-4,0.003 0,0.004 -5.3e-4,0.001 -0.0114,0.012 -0.0125,0.0125 -0.001,5.3e-4 -0.003,-5.3e-4 -0.004,0 -0.002,7.9e-4 -0.003,0.003 -0.004,0.004 -10e-4,0.001 -0.003,0.003 -0.004,0.004 -0.006,0.006 -0.0111,0.0111 -0.0167,0.0167 -0.001,0.001 -0.002,0.003 -0.004,0.004 -0.001,5.3e-4 -0.003,-10e-4 -0.004,0 -0.001,0.001 0.001,0.003 0,0.004 -0.002,0.002 -0.006,0.002 -0.008,0.004 -0.002,0.001 -0.003,0.003 -0.004,0.004 -0.004,0.004 -0.008,0.008 -0.0125,0.0125 -0.007,0.007 -0.0139,0.0139 -0.0209,0.0209 -0.004,0.004 -0.008,0.009 -0.0125,0.0126 -0.002,0.002 -0.006,0.002 -0.008,0.004 -0.005,0.003 -0.0106,0.0141 -0.0125,0.0167 -0.004,0.005 -0.0122,0.0122 -0.0167,0.0167 -0.001,0.001 -0.003,0.003 -0.004,0.004 -0.002,0.003 -0.002,0.006 -0.004,0.008 -0.001,0.002 -0.003,0.002 -0.004,0.004 -5.3e-4,0.001 5.3e-4,0.003 0,0.004 -0.002,0.004 -0.007,0.005 -0.008,0.008 -0.003,0.006 0.005,0.004 -0.004,0.008 -0.001,5.3e-4 -0.003,-0.001 -0.004,0 -0.001,0.001 5.3e-4,0.003 0,0.004 -7.9e-4,0.002 -0.003,0.002 -0.004,0.004 -5.3e-4,10e-4 5.3e-4,0.003 0,0.004 -0.004,0.009 -0.004,-5.3e-4 -0.008,0.008 -5.3e-4,10e-4 5.3e-4,0.003 0,0.004 -7.9e-4,0.002 -0.003,0.002 -0.004,0.004 -5.3e-4,0.001 5.3e-4,0.003 0,0.004 -7.9e-4,0.002 -0.003,0.002 -0.004,0.004 -0.001,0.002 7.9e-4,0.006 0,0.008 -0.001,0.003 -0.003,0.005 -0.004,0.008 -5.3e-4,0.001 0,0.003 0,0.004 -0.001,0.003 -0.003,0.005 -0.004,0.008 -5.3e-4,0.001 0,0.003 0,0.004 0,0.001 5.3e-4,0.003 0,0.004 -10e-4,0.003 -0.003,0.005 -0.004,0.008 -8e-4,0.003 7.9e-4,0.006 0,0.008 -0.0118,0.0237 0.002,-0.006 -0.004,0.0167 -8e-4,0.003 -0.003,0.005 -0.004,0.008 -8e-4,0.003 7.9e-4,0.006 0,0.008 -10e-4,0.003 -0.003,0.005 -0.004,0.008 -8e-4,0.003 0,0.0289 0,0.0334 0,0.0237 0,0.0473 0,0.071 0,0.0766 0,0.15312 0,0.22968 0,0.0111 -0.001,-0.001 0.004,0.004 0.002,0.002 -0.002,0.0105 0,0.0125 0.001,0.001 0.003,-0.001 0.004,0 7.9e-4,7.9e-4 -8e-4,0.0109 0,0.0125 0.002,0.005 0.006,0.008 0.008,0.0125 5.3e-4,0.001 0,0.003 0,0.004 0.001,0.003 0.003,0.006 0.004,0.008 0.003,0.004 0.006,0.008 0.008,0.0125 5.3e-4,0.001 0,0.003 0,0.004 0,0.003 -7.9e-4,0.006 0,0.008 5.3e-4,0.002 0.003,0.002 0.004,0.004 10e-4,0.002 -7.9e-4,0.006 0,0.008 0.0101,0.0302 -0.001,-0.007 0.008,0.0125 5.3e-4,0.001 -5.3e-4,0.003 0,0.004 0.0101,0.0302 -0.001,-0.007 0.008,0.0125 5.3e-4,10e-4 -5.3e-4,0.003 0,0.004 0.002,0.004 0.007,0.005 0.008,0.008 5.3e-4,10e-4 -5.3e-4,0.003 0,0.004 8e-4,0.002 0.003,0.002 0.004,0.004 5.3e-4,0.001 -5.3e-4,0.003 0,0.004 0.002,0.004 0.007,0.005 0.008,0.008 10e-6,2e-5 0,0.0125 0,0.0125 10e-4,10e-4 0.004,-0.001 0.004,0 0.001,0.002 -0.001,0.006 0,0.008 5.3e-4,0.001 0.003,-5.3e-4 0.004,0 0.002,7.9e-4 0.003,0.003 0.004,0.004 0.009,0.002 0.002,0.009 0.004,0.0125 7.9e-4,0.002 0.003,0.003 0.004,0.004 0.003,0.003 0.006,0.005 0.008,0.008 7.9e-4,0.001 -5.3e-4,0.003 0,0.004 7.9e-4,0.002 0.003,0.003 0.004,0.004 0.001,10e-4 0.003,0.003 0.004,0.004 10e-4,0.001 0.003,0.003 0.004,0.004 0.001,0.001 0.003,0.002 0.004,0.004 5.3e-4,10e-4 -5.3e-4,0.003 0,0.004 0.002,0.004 0.007,0.005 0.008,0.008 5.3e-4,10e-4 -5.3e-4,0.003 0,0.004 7.9e-4,0.002 0.003,0.003 0.004,0.004 0.003,0.004 0.005,0.009 0.008,0.0125 0.002,0.003 0.006,0.005 0.008,0.008 0.003,0.004 0.005,0.009 0.008,0.0125 0.004,0.005 0.008,0.008 0.0125,0.0125 10e-4,0.001 0.003,0.002 0.004,0.004 0.001,0.002 -0.002,0.006 0,0.008 0.001,0.001 0.003,-0.001 0.004,0 0.002,0.002 -7.9e-4,0.006 0,0.008 0.001,0.003 0.003,0.005 0.004,0.008 5.2e-4,0.001 -5.3e-4,0.003 0,0.004 7.9e-4,0.002 0.003,0.002 0.004,0.004 5.2e-4,0.001 -5.3e-4,0.003 0,0.004 7.9e-4,0.002 0.003,0.002 0.004,0.004 0.002,0.004 -0.004,0.009 0.004,0.0167 10e-4,0.001 0.003,-0.001 0.004,0 0.001,0.001 -5.3e-4,0.003 0,0.004 0.001,0.003 0.003,0.005 0.004,0.008 7.9e-4,0.003 -0.001,0.006 0,0.008 7.9e-4,0.002 0.003,0.002 0.004,0.004 5.3e-4,0.001 0,0.003 0,0.004 0,0.003 -8e-4,0.006 0,0.008 5.3e-4,0.002 0.004,0.002 0.004,0.004 7.9e-4,0.003 0,0.006 0,0.008 0,0.001 -5.3e-4,0.003 0,0.004 0.0139,0.0139 -0.002,-0.004 0.004,0.008 7.9e-4,0.002 0.004,0.002 0.004,0.004 7.9e-4,0.003 -0.001,0.006 0,0.008 5.3e-4,0.001 0.004,-0.001 0.004,0 0.001,0.002 -0.001,0.006 0,0.008 5.3e-4,0.001 0.003,-0.001 0.004,0 0.001,0.001 -0.001,0.0145 0,0.0167 7.9e-4,0.002 0.003,0.002 0.004,0.004 0.001,0.002 -10e-4,0.006 0,0.008 7.9e-4,0.002 0.003,0.002 0.004,0.004 0.001,0.002 -0.001,0.006 0,0.008 7.9e-4,0.002 0.004,0.002 0.004,0.004 7.9e-4,0.003 0,0.006 0,0.008 0,0.001 -5.3e-4,0.003 0,0.004 7.9e-4,0.002 0.004,0.002 0.004,0.004 8e-4,0.003 -10e-4,0.006 0,0.008 5.3e-4,10e-4 0.004,-0.001 0.004,0 0.001,0.002 -7.9e-4,0.006 0,0.008 5.3e-4,0.002 0.003,0.002 0.004,0.004 5.3e-4,10e-4 -5.3e-4,0.003 0,0.004 0.001,0.003 0.003,0.005 0.004,0.008 8e-4,0.003 -7.9e-4,0.006 0,0.008 0.001,0.003 0.003,0.005 0.004,0.008 5.3e-4,0.001 -0.001,0.003 0,0.004 0.001,0.001 0.004,-0.001 0.004,0 0.001,0.002 -7.9e-4,0.006 0,0.008 5.3e-4,0.002 0.003,0.002 0.004,0.004 0.002,0.004 -0.002,0.004 0,0.008 0.01,0.0191 -0.002,-0.0177 0.008,0.0125 5.3e-4,0.001 0,0.003 0,0.004 0.001,0.004 0.002,0.009 0.004,0.0125 0.002,0.004 0.007,0.005 0.008,0.008 0,0.0277 -0.002,-0.006 0.004,0.0125 7.9e-4,0.003 -8e-4,0.006 0,0.008 5.3e-4,0.002 0.003,0.002 0.004,0.004 5.3e-4,0.001 -5.3e-4,0.003 0,0.004 0.001,0.003 0.003,0.005 0.004,0.008 5.3e-4,0.001 -5.3e-4,0.003 0,0.004 0.001,0.003 0.003,0.005 0.004,0.008 5.3e-4,0.001 -5.3e-4,0.003 0,0.004 0.001,0.003 0.003,0.005 0.004,0.008 7.9e-4,0.003 -8e-4,0.006 0,0.008 5.3e-4,0.002 0.003,0.002 0.004,0.004 0.002,0.004 0.003,0.008 0.004,0.0125 2.6e-4,0.001 -10e-4,0.003 0,0.004 0.001,10e-4 0.004,-0.001 0.004,0 0.002,0.004 -0.002,0.009 0,0.0125 7.9e-4,0.002 0.004,0.002 0.004,0.004 0.001,0.003 -0.001,0.0187 0,0.0209 7.9e-4,0.002 0.003,0.002 0.004,0.004 5.3e-4,0.001 0,0.0157 0,0.0167 0,0.004 -7.9e-4,0.0196 0,0.0209 7.9e-4,0.002 0.004,0.002 0.004,0.004 7.9e-4,0.002 0,0.0132 0,0.0167 0,0.0125 0,0.025 0,0.0376 0,0.002 -7.9e-4,0.0191 0,0.0209 7.9e-4,0.002 0.004,0.002 0.004,0.004 7.9e-4,0.003 -7.9e-4,0.006 0,0.008 7.9e-4,0.003 0.003,0.005 0.004,0.008 0.004,0.0134 -0.004,-0.005 0,0.008 0.001,0.003 0.003,0.005 0.004,0.008 8e-4,0.002 -7.9e-4,0.0158 0,0.0167 0.001,0.001 0.003,-0.001 0.004,0 0.002,0.002 -0.001,0.018 0,0.0209 8e-4,0.002 0.003,0.002 0.004,0.004 5.3e-4,0.001 0,0.003 0,0.004 0,10e-4 0,0.003 0,0.004 0,0.008 0,0.0167 0,0.0251 0,0.003 -5.3e-4,0.024 0,0.0251 8e-4,0.002 0.003,0.002 0.004,0.004 10e-4,0.002 -0.001,0.0155 0,0.0167 10e-4,0.001 0.003,-0.001 0.004,0 0.001,0.001 -5.3e-4,0.003 0,0.004 0.002,0.004 0.007,0.005 0.008,0.008 5.3e-4,0.001 -0.001,0.003 0,0.004 10e-4,0.001 0.003,-10e-4 0.004,0 0.001,0.001 -0.001,0.0145 0,0.0167 0.002,0.004 0.007,0.005 0.008,0.008 0.005,0.0103 -0.0121,-0.004 0.004,0.0125 0.001,0.001 0.003,-0.001 0.004,0 0.001,0.001 -5.3e-4,0.003 0,0.004 7.9e-4,0.002 0.003,0.003 0.004,0.004 10e-4,10e-4 0.003,0.003 0.004,0.004 0.003,0.002 0.006,0.002 0.008,0.004 0.01,0.006 -0.003,0.003 0.0125,0.008 0.002,8e-4 0.026,0 0.0292,0 0.0111,0 0.0223,0 0.0334,0 0.004,0 0.0143,8e-4 0.0167,0 0.003,-0.001 0.005,-0.003 0.008,-0.004 0.004,-0.001 0.0169,10e-4 0.0209,0 0.003,-0.001 0.005,-0.003 0.008,-0.004 0.003,-0.001 0.0101,0.001 0.0125,0 0.002,-7.9e-4 0.002,-0.003 0.004,-0.004 0.001,-5.3e-4 0.003,0.001 0.004,0 0.001,-0.001 -0.001,-0.003 0,-0.004 0.001,-0.001 0.003,10e-4 0.004,0 10e-4,-0.001 -0.001,-0.003 0,-0.004 10e-4,-0.001 0.003,5.3e-4 0.004,0 0.003,-0.001 0.006,-0.002 0.008,-0.004 10e-4,-0.001 -0.001,-0.003 0,-0.004 10e-4,-0.001 0.003,7.9e-4 0.004,0 6e-5,-4e-5 0.0201,-0.0194 0.0209,-0.0209 5.3e-4,-0.001 0,-0.003 0,-0.004 0,-0.001 0,-0.003 0,-0.004 0,-0.0111 0,-0.0223 0,-0.0334 0,-0.0181 0,-0.0362 0,-0.0543 0,-0.003 8e-4,-0.0229 0,-0.0251 -5.3e-4,-0.002 -0.004,-0.002 -0.004,-0.004 -7.9e-4,-0.003 0,-0.006 0,-0.008 -0.001,-0.003 -0.003,-0.005 -0.004,-0.008 -7.9e-4,-0.003 0,-0.006 0,-0.008 0,-0.007 0,-0.0139 0,-0.0209 0,-0.0195 0,-0.039 0,-0.0585 0,-0.0237 0,-0.0473 0,-0.071 0,-0.007 0,-0.0139 0,-0.0209 0,-0.003 0,-0.006 0,-0.008 0,-0.001 -2.6e-4,-0.003 0,-0.004 0.001,-0.004 0.003,-0.008 0.004,-0.0125 0.002,-0.004 -7.9e-4,-0.008 0,-0.0125 0.001,-0.006 0.003,-0.011 0.004,-0.0167 5.3e-4,-0.003 -7.9e-4,-0.006 0,-0.008 8e-4,-0.003 0.003,-0.006 0.004,-0.008 0.001,-0.004 0.003,-0.008 0.004,-0.0125 0.002,-0.0116 -0.003,-0.007 0,-0.0209 5.3e-4,-0.002 0.003,-0.002 0.004,-0.004 5.3e-4,-0.001 0,-0.003 0,-0.004 10e-4,-0.004 0.002,-0.009 0.004,-0.0125 8e-4,-0.002 0.004,-0.002 0.004,-0.004 8e-4,-0.003 0,-0.006 0,-0.008 0.001,-0.004 0.003,-0.008 0.004,-0.0125 -0.002,-0.005 0.007,-0.009 0.008,-0.0126 0.002,-0.004 0.003,-0.008 0.004,-0.0125 10e-4,-0.003 0.003,-0.005 0.004,-0.008 7.9e-4,-0.003 -0.001,-0.006 0,-0.008 0.002,-0.005 0.006,-0.008 0.008,-0.0125 5.3e-4,-10e-4 -5.3e-4,-0.003 0,-0.004 0.001,-0.003 0.003,-0.006 0.004,-0.008 0.001,-0.003 0.002,-0.006 0.004,-0.008 0.001,-0.002 0.003,-0.003 0.004,-0.004 0.002,-0.003 0.002,-0.006 0.004,-0.008 0.004,-0.005 0.009,-0.008 0.0125,-0.0125 0.0311,-0.0414 -0.007,0.008 0.0125,-0.0209 10e-4,-0.002 0.003,-0.003 0.004,-0.004 0.003,-0.004 0.006,-0.008 0.008,-0.0125 10e-4,-0.003 0.003,-0.006 0.004,-0.008 0,-10e-4 -5.3e-4,-0.003 0,-0.004 0.005,-0.009 0.007,-0.0108 0.0125,-0.0167 0.001,-0.001 0.003,-0.003 0.004,-0.004 0.002,-0.003 0.002,-0.006 0.004,-0.008 0.002,-0.003 0.006,-0.005 0.008,-0.008 0.002,-0.003 0.002,-0.006 0.004,-0.008 0.003,-0.005 0.009,-0.008 0.0125,-0.0125 8e-4,-0.001 -5.2e-4,-0.003 0,-0.004 0.002,-0.005 0.009,-0.006 0.0125,-0.008 0.002,-0.001 0.003,-0.003 0.004,-0.004 0.004,-0.004 0.009,-0.008 0.0125,-0.0125 8e-4,-0.001 -5.2e-4,-0.003 0,-0.004 0.002,-0.005 0.009,-0.006 0.0126,-0.008 0.002,-0.001 0.003,-0.003 0.004,-0.004 0.003,-0.003 0.0128,-0.0141 0.0167,-0.0167 0.003,-0.002 0.006,-0.002 0.008,-0.004 0.003,-0.002 0.005,-0.006 0.008,-0.008 0.002,-0.009 0.009,-0.002 0.0125,-0.004 0.004,-0.002 0.0126,-0.0147 0.0167,-0.0167 0.001,-5.2e-4 0.003,5.3e-4 0.004,0 0.0394,-0.0197 -7.9e-4,-7.9e-4 0.0167,-0.0125 0.0292,-0.0194 -0.0205,0.0185 0.0209,-0.0125 0.002,-0.001 0.003,-0.003 0.004,-0.004 0.008,-0.005 0.017,-0.008 0.0251,-0.0125 0.002,-0.001 0.002,-0.003 0.004,-0.004 0.005,-0.003 0.0114,-0.005 0.0167,-0.008 0.002,-0.001 0.003,-0.003 0.004,-0.004 0.003,-0.002 0.006,-0.003 0.008,-0.004 0.004,-0.003 0.008,-0.006 0.0125,-0.008 0.003,-0.002 0.006,-0.002 0.008,-0.004 0.002,-10e-4 0.003,-0.003 0.004,-0.004 0.004,-0.003 0.009,-0.005 0.0125,-0.008 0.003,-0.002 0.005,-0.006 0.008,-0.008 0.0303,-0.0151 -0.007,0.004 0.0125,-0.008 0.005,-0.003 0.0115,-0.005 0.0167,-0.008 0.002,-0.001 0.003,-0.003 0.004,-0.004 0.003,-0.003 0.006,-0.005 0.008,-0.008 8e-4,-0.001 -5.3e-4,-0.003 0,-0.004 8e-4,-0.002 0.003,-0.003 0.004,-0.004 0.003,-0.003 0.006,-0.006 0.008,-0.008 0.006,-0.006 0.0111,-0.0111 0.0167,-0.0167 0.001,-0.001 0.003,-0.002 0.004,-0.004 5.3e-4,-10e-4 -0.001,-0.003 0,-0.004 0.002,-0.002 0.006,-0.002 0.008,-0.004 0.001,-0.001 -5.3e-4,-0.003 0,-0.004 0.002,-0.005 0.01,-0.008 0.0125,-0.0125 5.3e-4,-0.001 -0.001,-0.003 0,-0.004 0.002,-0.002 0.006,-0.002 0.008,-0.004 0.001,-10e-4 -5.3e-4,-0.003 0,-0.004 0.003,-0.006 0.007,-0.003 0.0125,-0.008 0.001,-10e-4 -5.3e-4,-0.003 0,-0.004 7.9e-4,-0.002 0.003,-0.003 0.004,-0.004 0.003,-0.003 0.006,-0.005 0.008,-0.008 7.9e-4,-0.001 -0.001,-0.003 0,-0.004 0.001,-0.001 0.003,0.001 0.004,0 0.002,-0.002 0.002,-0.006 0.004,-0.008 0.001,-0.002 0.003,-0.002 0.004,-0.004 5.3e-4,-0.001 -5.3e-4,-0.003 0,-0.004 0.001,-0.003 0.003,-0.006 0.004,-0.008 10e-4,-0.003 0.002,-0.006 0.004,-0.008 0.001,-0.001 0.003,0.001 0.004,0 0.004,-0.004 0.005,-0.0117 0.008,-0.0167 0.003,-0.003 0.006,-0.006 0.008,-0.008 0,-0.001 -5.3e-4,-0.003 0,-0.004 0.002,-0.004 0.007,-0.005 0.008,-0.008 5.3e-4,-0.001 0,-0.003 0,-0.004 0,-0.006 -5.2e-4,-0.005 0.004,-0.0125 10e-4,-0.002 0.003,-0.003 0.004,-0.004 0.002,-0.003 0.002,-0.006 0.004,-0.008 0.001,-0.002 0.003,-0.003 0.004,-0.004 5.3e-4,-7.9e-4 0.008,-0.0164 0.008,-0.0167 0.001,-10e-4 0.003,0.001 0.004,0 0.0163,-0.0163 -10e-4,-0.002 0.004,-0.0126 7.9e-4,-0.002 0.003,-0.003 0.004,-0.004 0.009,-0.002 0.002,-0.009 0.004,-0.0125 7.9e-4,-0.002 0.004,-0.002 0.004,-0.004 7.9e-4,-0.003 -7.9e-4,-0.006 0,-0.008 5.3e-4,-0.002 0.004,-0.002 0.004,-0.004 7.9e-4,-0.003 -7.9e-4,-0.006 0,-0.008 5.3e-4,-0.002 0.003,-0.003 0.004,-0.004 0.002,-0.003 0.003,-0.006 0.004,-0.008 0.001,-0.003 0.003,-0.005 0.004,-0.008 0.001,-0.004 -0.001,-0.009 0,-0.0125 0.001,-0.004 0.003,-0.008 0.004,-0.0125 2.7e-4,-0.001 -5.3e-4,-0.003 0,-0.004 7.9e-4,-0.002 0.004,-0.002 0.004,-0.004 8e-4,-0.003 0,-0.006 0,-0.008 0,-0.001 -5.3e-4,-0.003 0,-0.004 8e-4,-0.002 0.004,-0.002 0.004,-0.004 0.001,-0.004 0,-0.008 0,-0.0125 0,-0.0111 0,-0.0223 0,-0.0334 0,-0.008 0,-0.0167 0,-0.0251 0,-0.001 0,-0.003 0,-0.004 0,-0.001 5.3e-4,-0.003 0,-0.004 -7.9e-4,-0.002 -0.003,-0.002 -0.004,-0.004 -5.3e-4,-0.001 5.3e-4,-0.003 0,-0.004 -7.9e-4,-0.002 -0.003,-0.002 -0.004,-0.004 -5.3e-4,-0.001 5.3e-4,-0.003 0,-0.004 -7.9e-4,-0.002 -0.003,-0.002 -0.004,-0.004 -5.3e-4,-0.001 5.3e-4,-0.003 0,-0.004 -7.9e-4,-0.002 -0.003,-0.002 -0.004,-0.004 -5.3e-4,-0.001 5.3e-4,-0.003 0,-0.004 -0.009,-0.0174 2.6e-4,0.004 -0.008,-0.004 -0.001,-10e-4 5.3e-4,-0.003 0,-0.004 -0.002,-0.004 -0.007,-0.005 -0.008,-0.008 -5.3e-4,-10e-4 5.3e-4,-0.003 0,-0.004 -0.002,-0.005 -0.01,-0.008 -0.0125,-0.0125 -5.3e-4,-0.001 0,-0.003 0,-0.004 -0.003,-0.003 -0.006,-0.006 -0.008,-0.008 -0.01,-0.01 0.002,0.003 -0.008,-0.0125 -0.002,-0.003 -0.006,-0.005 -0.008,-0.008 -0.002,-0.003 -0.002,-0.006 -0.004,-0.008 -0.001,-0.001 -0.003,0.001 -0.004,0 -10e-4,-0.001 5.3e-4,-0.003 0,-0.004 -10e-4,-0.003 -0.003,-0.005 -0.004,-0.008 -5.3e-4,-0.001 5.3e-4,-0.003 0,-0.004 -0.002,-0.004 -0.0146,-0.0126 -0.0167,-0.0167 -5.3e-4,-0.001 5.3e-4,-0.003 0,-0.004 -0.002,-0.005 -0.01,-0.008 -0.0125,-0.0125 -5.3e-4,-10e-4 5.3e-4,-0.003 0,-0.004 -0.009,-0.0174 2.7e-4,0.004 -0.008,-0.004 -0.001,-0.001 0,-0.003 0,-0.004 -0.003,-10e-4 -0.005,-0.003 -0.008,-0.004 -0.001,-5.2e-4 -0.003,0.001 -0.004,0 -0.001,-0.001 10e-4,-0.003 0,-0.004 -0.002,-0.002 -0.006,-0.002 -0.008,-0.004 -0.002,-10e-4 -0.002,-0.004 -0.004,-0.004 -0.003,-7.9e-4 -0.006,0.001 -0.008,0 -0.001,-5.3e-4 0.001,-0.003 0,-0.004 -0.002,-0.002 -0.005,-0.003 -0.008,-0.004 -0.001,-5.3e-4 -0.003,0.001 -0.004,0 -0.001,-10e-4 0.001,-0.003 0,-0.004 -0.001,-0.001 -0.0227,-0.0118 -0.0251,-0.0125 -0.003,-7.9e-4 -0.006,0.002 -0.008,0 -0.003,-0.002 -0.005,-0.006 -0.008,-0.008 -0.001,-7.9e-4 -0.003,5.3e-4 -0.004,0 -0.003,-0.001 -0.006,-0.003 -0.008,-0.004 -0.001,0 -0.003,5.3e-4 -0.004,0 -0.003,-0.001 -0.005,-0.003 -0.008,-0.004 -0.003,-7.9e-4 -0.006,7.9e-4 -0.008,0 -0.003,-10e-4 -0.005,-0.003 -0.008,-0.004 -0.003,-7.9e-4 -0.006,7.9e-4 -0.008,0 -0.003,-0.001 -0.006,-0.002 -0.008,-0.004 -0.002,-0.001 -0.002,-0.004 -0.004,-0.004 -0.002,-5.3e-4 -0.0148,0.001 -0.0167,0 -0.002,-8e-4 -0.002,-0.004 -0.004,-0.004 -0.003,-8e-4 -0.006,0.001 -0.008,0 -0.001,-5.3e-4 10e-4,-0.004 0,-0.004 -0.002,-0.001 -0.006,7.9e-4 -0.008,0 -0.002,-5.3e-4 -0.002,-0.003 -0.004,-0.004 -0.001,-5.3e-4 -0.003,0 -0.004,0 -0.003,0 -0.006,7.9e-4 -0.008,0 -0.002,-5.3e-4 -0.002,-0.004 -0.004,-0.004 -0.003,-0.001 -0.0187,0.001 -0.0209,0 -0.002,-8e-4 -0.002,-0.004 -0.004,-0.004 -0.002,-8e-4 -0.0132,0 -0.0167,0 -0.0125,0 -0.0251,0 -0.0376,0 -0.003,0 -0.0154,5.3e-4 -0.0167,0 -0.002,-8e-4 -0.002,-0.004 -0.004,-0.004 -0.002,-8e-4 -0.0132,0 -0.0167,0 -0.0181,0 -0.0362,0 -0.0543,0 -0.0209,0 -0.0418,0 -0.0626,0 -0.006,0 -0.0111,0 -0.0167,0 -0.003,0 -0.006,-8e-4 -0.008,0 -0.003,0.001 -0.005,0.003 -0.008,0.004 -0.001,5.3e-4 -0.003,0 -0.004,0 -0.004,0 -0.008,0 -0.0125,0 -0.003,0 -0.006,-8e-4 -0.008,0 -0.003,0.001 -0.005,0.003 -0.008,0.004 -0.006,0.001 -0.0157,-0.002 -0.0209,0 -0.002,5.3e-4 -0.002,0.003 -0.004,0.004 -0.001,5.3e-4 -0.003,0 -0.004,0 -0.003,0 -0.006,-8e-4 -0.008,0 -0.002,5.3e-4 -0.002,0.003 -0.004,0.004 -0.003,0.001 -0.0141,-0.001 -0.0167,0 -0.002,7.9e-4 -0.002,0.003 -0.004,0.004 -0.002,0.001 -0.006,-8e-4 -0.008,0 -0.003,0.001 -0.006,0.003 -0.008,0.004 -0.003,0 -0.006,-8e-4 -0.008,0 -0.002,5.3e-4 -0.002,0.004 -0.004,0.004 -0.003,7.9e-4 -0.006,-8e-4 -0.008,0 -0.003,7.9e-4 -0.005,0.003 -0.008,0.004 -10e-4,5.3e-4 -0.003,-2.7e-4 -0.004,0 -0.004,0.001 -0.008,0.003 -0.0125,0.004 -0.001,2.6e-4 -0.003,-5.3e-4 -0.004,0 -0.0191,0.01 0.0177,-0.002 -0.0125,0.008 -0.003,7.9e-4 -0.006,-7.9e-4 -0.008,0 -0.003,0.001 -0.005,0.003 -0.008,0.004 -0.0117,0.004 0.003,-0.004 -0.008,0 -0.0101,0.003 -0.0111,0.0101 -0.0209,0.0125 -0.004,0.001 -0.009,-0.001 -0.0125,0 -0.0151,0.005 -0.003,0.002 -0.0125,0.008 -0.003,0.001 -0.006,0.003 -0.008,0.004 -0.001,0 -0.003,-5.3e-4 -0.004,0 -0.002,8e-4 -0.002,0.004 -0.004,0.004 -0.003,8e-4 -0.006,-0.001 -0.008,0 -0.001,5.3e-4 0.001,0.003 0,0.004 -0.0163,0.0163 -0.002,-10e-4 -0.0125,0.004 -0.002,8e-4 -0.003,0.003 -0.004,0.004 -0.003,0.002 -0.006,0.002 -0.008,0.004 -0.003,0.002 -0.005,0.007 -0.008,0.008 -0.001,5.3e-4 -0.003,0 -0.004,0 -10e-4,0.001 -0.002,0.003 -0.004,0.004 -0.001,5.3e-4 -0.003,-10e-4 -0.004,0 -0.001,0.001 0.001,0.003 0,0.004 -0.001,0.001 -0.003,-5.3e-4 -0.004,0 -0.002,7.9e-4 -0.002,0.003 -0.004,0.004 -0.001,5.3e-4 -0.003,-0.001 -0.004,0 -0.001,0.001 0.001,0.003 0,0.004 -0.001,0.001 -0.003,-5.3e-4 -0.004,0 -0.009,0.005 -10e-4,0.003 -0.004,0.008 -7.9e-4,0.002 -0.003,0.003 -0.004,0.004 -0.001,0.001 -0.002,0.003 -0.004,0.004 -10e-4,5.3e-4 -0.003,-5.3e-4 -0.004,0 -0.006,0.003 -0.003,0.007 -0.008,0.0125 -10e-4,0.001 -0.003,-5.3e-4 -0.004,0 -0.005,0.002 -0.006,0.009 -0.008,0.0126 -10e-4,0.001 -0.003,0.003 -0.004,0.004 -0.001,0 -0.003,-0.001 -0.004,0 -0.001,0.001 5.3e-4,0.003 0,0.004 -0.002,0.004 -0.0147,0.0126 -0.0167,0.0167 -5.3e-4,10e-4 0,0.003 0,0.004 -0.003,0.003 -0.006,0.005 -0.008,0.008 -7.9e-4,10e-4 10e-4,0.003 0,0.004 -0.001,0.001 -0.003,-0.001 -0.004,0 -0.002,0.002 -0.002,0.006 -0.004,0.008 -0.001,0.002 -0.003,0.003 -0.004,0.004 -0.002,0.003 -0.002,0.006 -0.004,0.008 -0.001,10e-4 -0.003,-0.001 -0.004,0 -0.001,10e-4 5.3e-4,0.003 0,0.004 -0.002,0.004 -0.007,0.005 -0.008,0.008 -5.3e-4,0.001 5.3e-4,0.003 0,0.004 -8e-4,0.002 -0.003,0.002 -0.004,0.004 -5.3e-4,0.001 5.3e-4,0.003 0,0.004 -8e-4,0.002 -0.003,0.002 -0.004,0.004 -5.3e-4,0.001 5.3e-4,0.003 0,0.004 -0.0101,0.0302 10e-4,-0.007 -0.008,0.0125 -5.3e-4,10e-4 5.2e-4,0.003 0,0.004 0.003,0.008 -0.007,0.008 -0.008,0.0125 -7.9e-4,0.003 0.001,0.006 0,0.008 -5.2e-4,0.001 -0.004,-0.001 -0.004,0 -0.003,0.006 0.003,0.0153 0,0.0209 -5.2e-4,0.001 -0.004,-10e-4 -0.004,0 -0.001,0.002 0,0.006 0,0.008 0,0.003 0,0.006 0,0.008 0,0.0125 0,0.0251 0,0.0376 0,0.0251 0,0.0501 0,0.0752 0,0.004 -7.9e-4,0.0314 0,0.0334 5.3e-4,0.002 0.003,0.002 0.004,0.004 5.3e-4,0.001 -2.6e-4,0.003 0,0.004 0.001,0.004 0.002,0.009 0.004,0.0125 8e-4,0.002 0.003,0.002 0.004,0.004 5.2e-4,0.001 -2.7e-4,0.003 0,0.004 0.001,0.004 0.003,0.008 0.004,0.0125 2.6e-4,0.001 -5.3e-4,0.003 0,0.004 0.001,0.003 0.003,0.005 0.004,0.008 7.9e-4,0.003 -0.001,0.006 0,0.008 7.9e-4,0.002 0.003,0.002 0.004,0.004 5.3e-4,0.001 0,0.0232 0,0.0251 0,0.001 -5.3e-4,0.003 0,0.004 7.9e-4,0.002 0.003,0.002 0.004,0.004 0.001,0.003 -0.001,0.0132 0,0.0167 0.001,0.003 0.003,0.005 0.004,0.008 0.001,0.004 -0.001,0.0169 0,0.0209 0.001,0.003 0.003,0.005 0.004,0.008 7.9e-4,0.003 -8e-4,0.006 0,0.008 10e-4,0.003 0.003,0.005 0.004,0.008 5.3e-4,0.001 -0.001,0.003 0,0.004 0.001,10e-4 0.003,0 0.004,0 0.001,0.003 0.003,0.005 0.004,0.008 7.9e-4,0.003 -7.9e-4,0.006 0,0.008 -0.008,0.007 0.007,0.0125 0.008,0.0167 7.9e-4,0.003 -7.9e-4,0.006 0,0.008 5.3e-4,0.002 0.003,0.002 0.004,0.004 5.3e-4,0.001 -5.3e-4,0.003 0,0.004 7.9e-4,0.002 0.003,0.002 0.004,0.004 0.002,0.004 -0.002,0.004 0,0.008 0.002,0.004 0.007,0.005 0.008,0.008 5.3e-4,0.001 -5.3e-4,0.003 0,0.004 0.01,0.009 10e-4,-8e-4 0.004,0.008 0.0101,0.0302 -0.001,-0.007 0.008,0.0125 5.3e-4,10e-4 -5.3e-4,0.003 0,0.004 8e-4,0.002 0.003,0.002 0.004,0.004 5.3e-4,0.001 0,0.003 0,0.004 0.001,10e-4 0.003,0.002 0.004,0.004 5.3e-4,0.001 -0.001,0.003 0,0.004 0.001,0.001 0.004,-0.001 0.004,0 10e-4,0.002 -7.9e-4,0.006 0,0.008 10e-4,0.003 0.0109,0.009 0.0125,0.0125 5.3e-4,0.001 -7.9e-4,0.003 0,0.004 0.002,0.003 0.006,0.005 0.008,0.008 7.9e-4,0.001 -5.3e-4,0.003 0,0.004 7.9e-4,0.002 0.003,0.003 0.004,0.004 0.002,0.003 0.002,0.006 0.004,0.008 0.003,0.004 0.0107,0.009 0.0125,0.0125 0.001,0.002 -0.001,0.006 0,0.008 0.002,0.004 0.007,0.005 0.008,0.008 5.3e-4,0.001 -5.3e-4,0.003 0,0.004 0.002,0.004 0.01,0.009 0.0125,0.0125 0.002,0.003 0.002,0.006 0.004,0.008 0.003,0.004 0.0107,0.009 0.0126,0.0125 5.2e-4,0.001 -5.3e-4,0.003 0,0.004 0.002,0.004 0.007,0.005 0.008,0.008 5.3e-4,0.001 -5.3e-4,0.003 0,0.004 7.9e-4,0.002 0.003,0.002 0.004,0.004 0.002,0.004 -0.002,0.004 0,0.008 0.002,0.004 0.007,0.005 0.008,0.008 0.001,0.002 -0.001,0.006 0,0.008 7.9e-4,0.002 0.003,0.002 0.004,0.004 5.3e-4,0.001 -5.3e-4,0.003 0,0.004 7.9e-4,0.002 0.003,0.002 0.004,0.004 10e-4,0.002 -0.001,0.006 0,0.008 7.9e-4,0.002 0.003,0.002 0.004,0.004 0.002,0.004 -0.002,0.004 0,0.008 7.9e-4,0.002 0.003,0.002 0.004,0.004 0.001,0.002 -0.001,0.006 0,0.008 7.9e-4,0.002 0.003,0.002 0.004,0.004 5.3e-4,0.001 -5.3e-4,0.003 0,0.004 7.9e-4,0.002 0.003,0.002 0.004,0.004 0.002,0.004 -0.002,0.004 0,0.008 7.9e-4,0.002 0.003,0.002 0.004,0.004 5.3e-4,0.001 -5.3e-4,0.003 0,0.004 0.001,0.003 0.003,0.005 0.004,0.008 5.3e-4,0.001 0,0.003 0,0.004 10e-4,0.003 0.003,0.005 0.004,0.008 0.001,0.003 -0.001,0.0139 0,0.0167 7.9e-4,0.002 0.003,0.002 0.004,0.004 5.3e-4,0.001 0,0.003 0,0.004 0,0.001 0,0.003 0,0.004 0,0.004 -7.9e-4,0.0143 0,0.0167 0.001,0.003 0.003,0.005 0.004,0.008 10e-4,0.004 -0.001,0.017 0,0.0209 5.3e-4,0.002 0.003,0.002 0.004,0.004 0.001,0.003 -0.001,0.0132 0,0.0167 0.001,0.003 0.003,0.006 0.004,0.008 0,0.004 -0.001,0.008 0,0.0125 5.3e-4,0.002 0.004,0.002 0.004,0.004 10e-4,0.004 -0.002,0.0207 0,0.0251 5.3e-4,0.002 0.003,0.002 0.004,0.004 0.002,0.003 -0.002,0.009 0,0.0125 8e-4,0.002 0.003,0.002 0.004,0.004 5.3e-4,0.001 0,0.003 0,0.004 0,0.003 -7.9e-4,0.006 0,0.008 8e-4,0.003 0.003,0.005 0.004,0.008 5.3e-4,0.001 0,0.003 0,0.004 10e-4,0.003 0.003,0.005 0.004,0.008 8e-4,0.002 0,0.01 0,0.0125 0,0.001 0,0.003 0,0.004 0,0.001 0.001,0.004 0,0.004 -0.001,0 0,-0.003 0,-0.004 0,-0.007 0,-0.0139 0,-0.0209 0,-0.008 0,-0.0167 0,-0.0251 0,-0.003 -7.9e-4,-0.0102 0,-0.0125 0.001,-0.003 0.003,-0.005 0.004,-0.008 7.9e-4,-0.003 0,-0.006 0,-0.008 0,-0.007 0,-0.0139 0,-0.0209 0,-0.004 -0.001,-0.009 0,-0.0125 5.2e-4,-0.002 0.003,-0.002 0.004,-0.004 10e-4,-0.002 0,-0.028 0,-0.0334 0,-0.003 0,-0.006 0,-0.008 0,-0.001 -5.3e-4,-0.003 0,-0.004 7.9e-4,-0.002 0.003,-0.002 0.004,-0.004 0.001,-0.003 -0.001,-0.0223 0,-0.0251 7.9e-4,-0.002 0.004,-0.002 0.004,-0.004 0.002,-0.006 -0.002,-0.0194 0,-0.0251 5.3e-4,-0.002 0.003,-0.002 0.004,-0.004 5.3e-4,-0.001 0,-0.003 0,-0.004 0,-0.004 -8e-4,-0.008 0,-0.0125 5.3e-4,-0.003 0.003,-0.005 0.004,-0.008 5.3e-4,-0.001 -2.7e-4,-0.003 0,-0.004 0.002,-0.008 0.005,-0.0213 0.008,-0.0292 10e-4,-0.003 0.003,-0.006 0.004,-0.008 0.005,-0.0124 0.0131,-0.0343 0.0209,-0.0459 0.003,-0.005 0.01,-0.007 0.0126,-0.0125 0.003,-0.005 0.005,-0.0114 0.008,-0.0167 0.001,-0.002 0.003,-0.003 0.004,-0.004 0.013,-0.0195 -0.008,0.005 0.0125,-0.0209 0.002,-0.003 0.006,-0.006 0.008,-0.008 0.001,-0.001 0.003,-0.002 0.004,-0.004 0.003,-0.006 0.006,-0.0111 0.008,-0.0167 0.001,-0.001 0.003,-0.003 0.004,-0.004 0.002,-0.003 0.002,-0.006 0.004,-0.008 0.004,-0.005 0.009,-0.008 0.0125,-0.0126 0.002,-0.003 0.003,-0.006 0.004,-0.008 0.0111,-0.0223 -0.004,0.004 0.0125,-0.0125 0.0279,-0.0278 -0.0209,0.01 0.0126,-0.0125 0.005,-0.003 0.0103,-0.0139 0.0125,-0.0167 0.007,-0.009 0.0177,-0.0159 0.025,-0.025 0.002,-0.002 0.002,-0.006 0.004,-0.008 0.0197,-0.0262 -0.004,0.0132 0.0167,-0.0209 0.002,-0.003 0.002,-0.006 0.004,-0.008 0.002,-0.002 0.006,-0.002 0.008,-0.004 0.014,-0.002 0.01,-0.018 0.0167,-0.0251 0.002,-0.002 0.006,-0.002 0.008,-0.004 0.005,-0.005 0.008,-0.0113 0.0125,-0.0167 0.001,-0.002 0.003,-0.003 0.004,-0.004 0.003,-0.004 0.006,-0.008 0.008,-0.0125 0.002,-0.003 0.002,-0.006 0.004,-0.008 0.003,-0.005 0.009,-0.008 0.0125,-0.0125 0.002,-0.002 0.002,-0.006 0.004,-0.008 0.001,-0.002 0.003,-0.003 0.004,-0.004 0.003,-0.005 0.005,-0.0115 0.008,-0.0167 0.003,-0.005 0.009,-0.008 0.0125,-0.0125 7.9e-4,-0.001 -5.3e-4,-0.003 0,-0.004 7.9e-4,-0.002 0.003,-0.003 0.004,-0.004 0.003,-0.004 0.006,-0.008 0.008,-0.0125 5.3e-4,-0.001 -8e-4,-0.003 0,-0.004 0.002,-0.003 0.006,-0.005 0.008,-0.008 7.9e-4,-0.001 -5.3e-4,-0.003 0,-0.004 7.9e-4,-0.002 0.003,-0.002 0.004,-0.004 0.0127,-0.003 0.002,-0.0116 0.004,-0.0167 7.9e-4,-0.002 0.003,-0.002 0.004,-0.004 0.0126,-0.0252 -5.3e-4,-0.002 0.004,-0.0209 7.9e-4,-0.003 0.003,-0.006 0.004,-0.008 0.001,-0.004 0.003,-0.008 0.004,-0.0126 5.3e-4,-0.003 0,-0.006 0,-0.008 0,-0.0125 0,-0.025 0,-0.0376 0,-0.008 0,-0.0167 0,-0.0251 0,-0.004 0.001,-0.008 0,-0.0125 -7.9e-4,-0.003 -0.003,-0.005 -0.004,-0.008 -0.004,-0.0124 0.01,0.009 -0.004,-0.0125 -0.001,-0.002 -0.003,-0.002 -0.004,-0.004 -5.3e-4,-0.001 5.3e-4,-0.003 0,-0.004 -10e-4,-0.003 -0.003,-0.005 -0.004,-0.008 -5.3e-4,-0.001 5.3e-4,-0.003 0,-0.004 -0.002,-0.004 -0.007,-0.005 -0.008,-0.008 -5.3e-4,-0.001 5.3e-4,-0.003 0,-0.004 -8e-4,-0.002 -0.0166,-0.0166 -0.0167,-0.0167 -0.001,-8e-4 -0.003,0.001 -0.004,0 -0.001,-0.001 10e-4,-0.003 0,-0.004 -0.0105,-0.0106 -0.005,-0.002 -0.0125,-0.004 -0.003,-0.001 -0.006,-0.002 -0.008,-0.004 -0.002,-0.001 -0.003,-0.003 -0.004,-0.004 -0.0211,-0.0141 -1e-4,-4e-5 -0.0125,-0.004 -0.003,-0.001 -0.005,-0.003 -0.008,-0.004 -0.003,-8e-4 -0.0163,0 -0.0209,0 -0.0153,0 -0.0306,0 -0.0459,0 -0.0111,0 -0.0223,0 -0.0334,0 -0.003,0 -0.006,0 -0.008,0 -0.001,0 -0.003,-5.3e-4 -0.004,0 -0.003,0.001 -0.005,0.003 -0.008,0.004 -0.003,7.9e-4 -0.006,0 -0.008,0 -0.001,0 -0.003,-5.3e-4 -0.004,0 -0.002,7.9e-4 -0.002,0.003 -0.004,0.004 -0.001,5.3e-4 -0.003,-5.3e-4 -0.004,0 -0.0151,0.005 -0.003,0.002 -0.0125,0.008 -0.003,0.002 -0.006,0.002 -0.008,0.004 -0.004,0.003 -0.009,0.0107 -0.0125,0.0125 -10e-4,5.3e-4 -0.003,-0.001 -0.004,0 -0.005,0.005 -0.002,0.009 -0.008,0.0125 -10e-4,5.3e-4 -0.003,-0.001 -0.004,0 -0.0118,2.6e-4 -0.001,0.009 -0.004,0.0126 -0.001,10e-4 -0.003,-0.001 -0.004,0 -0.002,0.002 -0.002,0.006 -0.004,0.008 -0.001,0.002 -0.003,0.002 -0.004,0.004 -5.3e-4,10e-4 5.3e-4,0.003 0,0.004 -0.0101,0.0302 0.001,-0.007 -0.008,0.0125 -5.3e-4,0.001 5.2e-4,0.003 0,0.004 -8e-4,0.002 -0.003,0.002 -0.004,0.004 -5.2e-4,0.001 5.3e-4,0.003 0,0.004 -0.001,0.003 -0.003,0.005 -0.004,0.008 -5.2e-4,0.001 10e-4,0.003 0,0.004 -0.001,0.001 -0.004,-0.001 -0.004,0 -5.3e-4,0.001 0,0.0267 0,0.0292 0,0.001 -5.3e-4,0.003 0,0.004 8e-4,0.002 0.003,0.002 0.004,0.004 5.3e-4,0.001 -5.2e-4,0.003 0,0.004 0.002,0.005 0.01,0.008 0.0125,0.0125 5.3e-4,0.001 -5.3e-4,0.003 0,0.004 7.9e-4,0.002 0.003,0.002 0.004,0.004 5.3e-4,0.001 -5.3e-4,0.003 0,0.004 7.9e-4,0.002 0.003,0.002 0.004,0.004 5.3e-4,0.001 -0.001,0.003 0,0.004 10e-4,0.001 0.003,-5.3e-4 0.004,0 0.0174,0.009 -0.004,-2.7e-4 0.004,0.008 0.001,0.001 0.003,-0.001 0.004,0 10e-4,0.001 -0.001,0.003 0,0.004 0.002,0.002 0.008,-0.003 0.008,0 0,0.001 -0.003,0 -0.004,0"
         style="fill:#f0c900;fill-opacity:1;fill-rule:evenodd;stroke:#f0c900;stroke-width:0.26458332px;stroke-linecap:butt;stroke-linejoin:miter;stroke-opacity:1" />
      <g
         transform="matrix(-0.01651244,0,0,0.01527535,145.12306,185.55411)"
         id="g39399">
        <g
           id="g39332">
          <path
             inkscape:connector-curvature="0"
             d="M 199.432,83.02 C 187.303,55.348 157.359,40.1 127.702,44.687 c -3.859,0.597 -7.585,1.566 -11.177,2.823 -0.89,-0.018 -1.781,-0.038 -2.671,-0.059 -0.747,-0.017 -0.842,0.858 -0.377,1.228 -21.641,8.85 -37.402,29.195 -40.911,52.839 -2.418,16.293 1.378,33.332 11.424,46.515 15.03,19.723 35.633,26.94 45.416,50.659 -6.826,2.682 -11.192,11.671 -7.472,18.413 0.09,0.162 0.226,0.209 0.348,0.293 0.384,1.082 1.332,1.908 2.616,2.548 -0.052,0.026 -0.105,0.012 -0.156,0.054 -0.275,0.228 -0.478,0.535 -0.723,0.797 -0.3,0.002 -0.6,0 -0.9,0.002 -0.455,0.002 -0.455,0.704 0,0.706 0.086,0 0.171,0 0.257,0 -3.601,4.75 -3.155,13.275 2.584,15.994 0.021,0.223 0.109,0.431 0.362,0.547 11.756,5.41 26.731,3.072 39.095,0.927 8.979,-1.557 21.683,-3.324 28.191,-10.735 3.944,2.929 5.94,7.665 5,12.426 -8.657,8.163 -19.894,11.339 -31.367,13.333 -10.406,1.809 -29.088,5.791 -38.65,-1.434 0.137,-0.245 0.191,-0.529 -0.021,-0.853 -0.061,-0.093 -0.106,-0.19 -0.165,-0.283 4.177,0.674 8.386,1.203 12.586,1.691 0.453,0.053 0.565,-0.734 0.109,-0.803 -4.383,-0.665 -8.786,-1.3 -13.198,-1.752 -0.727,-1.349 -1.198,-2.74 -1.376,-4.142 3.934,-0.047 7.865,0.116 11.787,0.411 0.59,0.044 0.574,-0.851 0,-0.911 -3.948,-0.413 -7.882,-0.459 -11.842,-0.299 -0.089,-1.977 0.412,-3.968 1.687,-5.89 0.404,-0.609 -0.475,-1.219 -0.978,-0.755 -2.906,2.685 -3.82,7.342 -2.258,10.948 -0.037,0.109 -0.032,0.239 0.041,0.38 2.089,4.03 5.265,6.374 8.989,7.678 0.017,0.059 -0.01,0.116 0.029,0.174 15.206,22.715 59.306,17.64 62.519,-11.975 0.012,-0.107 -0.018,-0.187 -0.027,-0.281 0.903,-0.701 1.825,-1.374 2.67,-2.163 0.299,-0.008 0.584,-0.103 0.737,-0.431 0.051,-0.11 0.073,-0.228 0.121,-0.339 0.216,-0.215 0.463,-0.384 0.674,-0.605 0.519,-0.543 0.439,-1.188 0.101,-1.651 1.31,-5.37 -0.605,-11.259 -5.233,-14.496 2.895,-4.726 2.698,-12.946 -1.578,-17.069 0.538,-0.539 1.074,-1.08 1.546,-1.672 0.816,-1.022 -0.086,-2.315 -1.106,-2.144 1.029,-7.741 -4.627,-15.92 -13.065,-15.938 -0.02,0 -0.029,0.019 -0.049,0.02 -3.561,-24.17 16.992,-40.655 22.326,-62.806 3.463,-14.386 1.732,-30.09 -4.185,-43.587 z m -33.588,186.824 c -11.536,2.149 -22.125,-2.48 -29.549,-11.192 7.38,1.689 16.337,0.108 23.425,-0.724 11.484,-1.348 23.82,-3.581 33.67,-9.851 -2.533,12.81 -15.563,19.535 -27.546,21.767 z m 28.604,-53.334 c 0.559,2.066 0.539,4.076 0.16,6.067 -0.206,0.1 -0.403,0.244 -0.56,0.497 -6.223,9.971 -21.225,11.785 -31.872,13.495 -10.652,1.711 -23.635,3.354 -34.231,0.278 -0.032,-0.161 -0.078,-0.324 -0.209,-0.455 -0.753,-0.752 -1.412,-1.578 -2.015,-2.433 3.924,0.898 7.916,1.546 11.945,1.629 0.777,0.016 0.751,-1.122 0,-1.19 -4.285,-0.386 -8.526,-0.828 -12.751,-1.655 -0.948,-1.644 -1.526,-3.411 -1.624,-5.2 3.906,0.108 7.823,0.069 11.729,0.016 0.586,-0.008 0.587,-0.903 0,-0.911 -3.913,-0.053 -7.836,-0.093 -11.75,0.016 0.072,-1.742 0.678,-3.487 1.918,-5.153 1.93,0.013 3.861,0.021 5.791,0.012 6.335,0.807 14.024,0.135 15.746,-0.02 12.92,-1.167 33.468,-1.668 44.822,-10.242 1.211,1.578 2.32,3.101 2.901,5.249 z m -13.484,-23.629 c 0.223,-0.186 0.4,-0.426 0.507,-0.706 3.183,0.815 5.904,1.79 8.107,4.476 2.319,2.828 3.152,6.492 2.83,10.088 -0.352,0.294 -0.728,0.52 -1.087,0.791 -0.693,-0.051 -1.381,0.395 -1.437,1.046 -7.274,4.796 -15.944,5.683 -24.659,7.133 -3.634,0.605 -38.611,6.255 -41.426,0.291 -0.064,-0.361 -0.099,-0.715 -0.145,-1.072 0.013,-0.118 0.006,-0.229 0.039,-0.353 0.054,-0.207 -0.032,-0.378 -0.156,-0.52 -0.031,-0.369 -0.023,-0.729 -0.033,-1.093 0.05,0.033 0.068,0.087 0.138,0.104 4.31,1.055 8.537,1.089 12.852,0.048 0.656,-0.159 0.375,-1.132 -0.277,-1.004 -4.081,0.801 -8.217,0.784 -12.284,-0.101 -0.189,-0.041 -0.338,0.016 -0.455,0.112 0.04,-2.336 0.555,-4.532 1.536,-6.519 3.988,0.34 7.985,0.78 11.986,0.826 0.55,0.006 0.523,-0.779 0,-0.837 -3.855,-0.425 -7.749,-0.485 -11.627,-0.621 1.055,-1.877 2.528,-3.559 4.556,-4.916 0.33,0.857 0.682,1.679 0.984,2.579 0.224,0.668 1.05,0.591 1.299,0.109 0.074,0.024 0.112,0.084 0.204,0.085 16.044,0.278 33.024,-2.312 48.037,-8.051 0.888,-0.34 0.966,-1.344 0.511,-1.895 z m -33.786,6.582 c -5.941,-30.462 -20.803,-58.006 -37.789,-83.765 7.97,-7.27 21.215,-9.006 31.183,-5.298 6.992,2.601 12.766,7.649 19.963,9.823 1.165,0.352 2.512,0.746 3.931,1.095 -5.007,24.548 -4.504,49.891 1.262,74.586 -6.159,1.36 -12.319,2.591 -18.55,3.559 z m 54.641,-84.013 c -1.816,28.099 -29.222,47.644 -23.467,76.702 0.057,0.289 0.175,0.509 0.322,0.689 -3.653,0.95 -7.273,1.754 -10.899,2.579 -4.585,-25.197 -4.474,-49.211 0.07,-73.426 4.593,0.672 9.156,0.164 10.6,-4.384 0.443,-1.394 -1.468,-2.002 -2.226,-0.938 -1.851,2.595 -4.64,3.318 -7.866,2.975 1.436,-7.201 3.201,-14.42 5.413,-21.701 0.493,-1.623 -1.945,-2.245 -2.51,-0.692 -2.596,7.134 -4.665,14.387 -6.268,21.71 -8.425,-2.414 -18.551,-9.808 -23.614,-11.68 -5.925,-2.191 -12.195,-2.594 -18.364,-1.224 -5.668,1.26 -10.931,3.941 -14.904,7.72 -1.977,-2.971 -3.975,-5.924 -5.994,-8.85 -0.691,-1.001 -2.297,-0.105 -1.654,0.966 1.962,3.267 3.925,6.514 5.878,9.754 -3.867,4.496 -6.034,10.239 -5.302,16.847 0.098,0.881 1.438,0.93 1.413,0 -0.165,-6.17 1.826,-11.109 5.069,-14.887 15.739,26.146 30.602,51.849 37.712,82.177 -4.222,0.623 -8.48,1.164 -12.816,1.572 -0.165,0.016 -0.268,0.107 -0.376,0.189 -0.256,-0.91 -0.608,-1.738 -0.906,-2.612 0.009,-0.17 -0.048,-0.322 -0.157,-0.452 -0.216,-0.616 -0.501,-1.173 -0.737,-1.771 2.91,0.469 5.806,0.936 8.735,1.264 0.601,0.067 0.737,-0.941 0.143,-1.059 -2.845,-0.563 -5.702,-0.985 -8.571,-1.41 -0.317,-0.047 -0.532,0.139 -0.658,0.364 -2.309,-5.556 -5.476,-10.368 -9.1,-14.782 2.778,0.416 5.593,0.488 8.388,0.088 0.468,-0.067 0.354,-0.838 -0.111,-0.822 -3.073,0.111 -6.089,0.04 -9.129,-0.267 -2.482,-2.923 -5.174,-5.661 -7.953,-8.321 1.949,0.316 3.894,0.658 5.852,0.902 0.505,0.063 0.627,-0.808 0.121,-0.895 -2.324,-0.4 -4.666,-0.694 -7.005,-0.996 -2.311,-2.179 -4.675,-4.308 -7.035,-6.438 3.089,0.329 6.123,0.945 9.15,1.785 0.639,0.177 0.893,-0.779 0.272,-0.986 -3.464,-1.152 -7.03,-1.725 -10.648,-1.909 -3.176,-2.873 -6.3,-5.784 -9.269,-8.822 3.937,0.656 7.911,1.399 11.878,1.59 0.543,0.026 0.659,-0.824 0.129,-0.949 -4.316,-1.021 -8.84,-1.38 -13.247,-1.924 -3.068,-3.241 -5.909,-6.669 -8.367,-10.417 3.389,0.657 6.791,1.263 10.21,1.72 0.621,0.083 0.761,-0.971 0.148,-1.096 -3.68,-0.746 -7.401,-1.319 -11.122,-1.833 -2.266,-3.648 -4.151,-7.614 -5.51,-12.022 3.72,0.608 7.449,1.245 11.21,1.523 0.496,0.036 0.616,-0.789 0.119,-0.877 -3.75,-0.659 -7.556,-0.958 -11.348,-1.284 -0.071,-0.006 -0.124,0.026 -0.172,0.062 -0.849,-2.871 -1.45,-5.758 -1.867,-8.643 3.752,0.026 7.399,0.429 11.109,1.043 0.751,0.124 1.09,-0.969 0.321,-1.165 -3.768,-0.962 -7.708,-1.201 -11.584,-0.984 -0.273,-2.166 -0.424,-4.329 -0.468,-6.484 3.525,0.111 7.057,0.132 10.58,0.009 0.777,-0.027 0.779,-1.181 0,-1.209 -3.513,-0.123 -7.035,-0.101 -10.549,0.009 -0.003,-3.756 0.368,-7.472 1.019,-11.122 4.273,0.27 8.554,0.621 12.835,0.552 0.929,-0.015 0.885,-1.315 0,-1.413 -4.163,-0.46 -8.364,-0.523 -12.552,-0.651 1.653,-8.13 4.888,-15.852 9.364,-22.75 4.357,0.469 8.719,0.982 13.093,1.182 0.841,0.038 1.063,-1.377 0.203,-1.498 -4.078,-0.568 -8.191,-0.871 -12.299,-1.188 2.297,-3.339 4.912,-6.449 7.777,-9.311 4.965,0.475 9.924,0.968 14.912,1.136 0.857,0.029 0.808,-1.203 0,-1.301 -4.53,-0.553 -9.081,-0.834 -13.633,-1.108 3.002,-2.836 6.305,-5.346 9.816,-7.557 5.186,0.969 10.43,1.409 15.714,0.904 1.017,-0.097 1.058,-1.652 0,-1.618 -4.654,0.151 -9.228,0.081 -13.803,-0.461 4.35,-2.525 9.058,-4.482 14.012,-5.886 4.558,0.319 9.118,0.604 13.681,0.653 1.187,0.013 1.154,-1.729 0,-1.822 -2.257,-0.183 -4.524,-0.25 -6.789,-0.344 1.864,-0.296 3.736,-0.573 5.661,-0.692 38.588,-2.372 70.409,29.766 67.92,68.267 z"
             id="path39308" />
          <path
             inkscape:connector-curvature="0"
             d="m 95.661,181.366 c -8.595,3.937 -17.327,7.668 -25.855,11.736 -0.854,0.407 -0.253,1.821 0.645,1.529 8.976,-2.917 17.815,-7.237 25.942,-12.013 0.82,-0.482 0.102,-1.634 -0.732,-1.252 z"
             id="path39310" />
          <path
             inkscape:connector-curvature="0"
             d="m 54.219,121.243 c -8.861,1.463 -17.394,1.036 -26.249,-0.123 -0.925,-0.121 -1.092,1.381 -0.218,1.607 8.841,2.287 18.033,1.997 26.946,0.255 1.149,-0.224 0.65,-1.925 -0.479,-1.739 z"
             id="path39312" />
          <path
             inkscape:connector-curvature="0"
             d="M 79.55,50.139 C 72.9,41.427 68.223,31.712 65.133,21.207 c -0.284,-0.967 -1.729,-0.564 -1.506,0.415 2.499,10.985 7.527,20.792 14.551,29.575 0.613,0.767 1.975,-0.269 1.372,-1.058 z"
             id="path39314" />
          <path
             inkscape:connector-curvature="0"
             d="m 134.736,0.936 c 0.122,-1.063 -1.703,-1.319 -1.881,-0.254 -1.335,7.993 -1.433,15.985 -0.676,24.047 0.11,1.175 1.947,1.202 1.859,0 -0.583,-7.971 -0.209,-15.862 0.698,-23.793 z"
             id="path39316" />
          <path
             inkscape:connector-curvature="0"
             d="m 191.869,10.802 c -6.068,7.061 -9.822,15.961 -12.385,24.832 -0.371,1.283 1.582,1.806 1.99,0.549 2.858,-8.79 7.272,-16.301 11.913,-24.209 0.541,-0.922 -0.786,-2.024 -1.518,-1.172 z"
             id="path39318" />
          <path
             inkscape:connector-curvature="0"
             d="m 241.515,57.795 c -4.488,3.615 -8.517,7.802 -12.653,11.807 -0.975,0.945 0.496,2.403 1.486,1.486 4.221,-3.912 8.62,-7.707 12.468,-11.991 0.807,-0.898 -0.391,-2.036 -1.301,-1.302 z"
             id="path39320" />
          <path
             inkscape:connector-curvature="0"
             d="m 243.539,128.115 c -7.793,3.432 -15.454,7.066 -23.424,10.087 -1.257,0.477 -0.733,2.506 0.564,2.044 8.168,-2.912 16.333,-6.089 23.921,-10.317 1.208,-0.673 0.146,-2.346 -1.061,-1.814 z"
             id="path39322" />
          <path
             inkscape:connector-curvature="0"
             d="m 156.334,265.44 c -4.069,-0.832 -8.535,-1.784 -12.698,-1.816 -0.405,-0.003 -0.472,0.578 -0.094,0.694 3.981,1.224 8.52,1.656 12.661,2.09 0.55,0.057 0.673,-0.858 0.131,-0.968 z"
             id="path39324" />
          <path
             inkscape:connector-curvature="0"
             d="m 150.308,260.513 c -3.762,-0.704 -7.502,-0.924 -11.322,-0.644 -0.366,0.027 -0.374,0.59 0,0.576 3.74,-0.136 7.458,0.083 11.154,0.678 0.395,0.063 0.571,-0.534 0.168,-0.61 z"
             id="path39326" />
          <path
             inkscape:connector-curvature="0"
             d="m 134.358,188.5 c -2.203,-0.039 -4.408,-0.007 -6.611,0 -0.335,0.001 -0.336,0.52 0,0.521 2.203,0.007 4.408,0.039 6.611,0 0.335,-0.006 0.335,-0.515 0,-0.521 z"
             id="path39328" />
          <path
             inkscape:connector-curvature="0"
             d="m 90.727,87.552 c -3.496,-0.338 -7.069,-0.094 -10.577,-0.047 -0.993,0.013 -0.994,1.53 0,1.543 3.508,0.047 7.081,0.291 10.577,-0.047 0.931,-0.089 0.933,-1.359 0,-1.449 z"
             id="path39330" />
        </g>
        <g
           id="g39334" />
        <g
           id="g39336" />
        <g
           id="g39338" />
        <g
           id="g39340" />
        <g
           id="g39342" />
        <g
           id="g39344" />
        <g
           id="g39346" />
        <g
           id="g39348" />
        <g
           id="g39350" />
        <g
           id="g39352" />
        <g
           id="g39354" />
        <g
           id="g39356" />
        <g
           id="g39358" />
        <g
           id="g39360" />
        <g
           id="g39362" />
      </g>
    </g>
  </g>
</svg>
